<?xml version="1.0" encoding="UTF-8" standalone="no"?>
<!DOCTYPE svg PUBLIC "-//W3C//DTD SVG 1.1//EN"
 "http://www.w3.org/Graphics/SVG/1.1/DTD/svg11.dtd">
<!-- Generated by graphviz version 7.0.4 (20221203.1631)
 -->
<!-- Title: jcGraph Pages: 1 -->
<svg width="764pt" height="740pt"
     viewBox="0.00 0.00 764.00 740.00" xmlns="http://www.w3.org/2000/svg">
<g id="graph0" class="graph" transform="scale(1 1) rotate(0) translate(4 736)">
<title>jcGraph</title>
<!-- 0 -->
<g id="node1" class="node">
<title>0</title>
<polygon fill="none" stroke="black" points="756,-732 630,-732 630,-696 756,-696 756,-732"/>
<text text-anchor="start" x="638" y="-717.4" font-family="Times New Roman,serif" font-size="12.00">%1 = 2147483647</text>
<text text-anchor="start" x="638" y="-704.4" font-family="Times New Roman,serif" font-size="12.00">goto JcInstRef(index=2)</text>
</g>
<!-- 1 -->
<g id="node2" class="node">
<title>1</title>
<polygon fill="none" stroke="black" points="742,-659 644,-659 644,-623 742,-623 742,-659"/>
<text text-anchor="start" x="652" y="-637.9" font-family="Times New Roman,serif" font-size="12.00">if (arg$2 &gt; arg$3)</text>
</g>
<!-- 0&#45;&gt;1 -->
<g id="edge1" class="edge">
<title>0&#45;&gt;1</title>
<path fill="none" stroke="black" d="M693,-695.81C693,-688.23 693,-679.1 693,-670.54"/>
<polygon fill="black" stroke="black" points="696.5,-670.54 693,-660.54 689.5,-670.54 696.5,-670.54"/>
</g>
<!-- 2 -->
<g id="node3" class="node">
<title>2</title>
<polygon fill="none" stroke="black" points="546,-572 438,-572 438,-525 546,-525 546,-572"/>
<text text-anchor="start" x="446" y="-558.4" font-family="Times New Roman,serif" font-size="12.00">%2 = arg$3 &#45; arg$2</text>
<text text-anchor="start" x="446" y="-545.4" font-family="Times New Roman,serif" font-size="12.00">%3 = %2 / 2</text>
<text text-anchor="start" x="446" y="-532.4" font-family="Times New Roman,serif" font-size="12.00">%4 = arg$2 + %3</text>
</g>
<!-- 1&#45;&gt;2 -->
<g id="edge3" class="edge">
<title>1&#45;&gt;2</title>
<path fill="none" stroke="black" d="M654.25,-622.55C625.63,-609.67 586.11,-591.87 553.23,-577.07"/>
<polygon fill="black" stroke="black" points="554.75,-573.92 544.2,-573 551.88,-580.3 554.75,-573.92"/>
<text text-anchor="middle" x="623" y="-593.8" font-family="Times New Roman,serif" font-size="14.00">false</text>
</g>
<!-- 13 -->
<g id="node14" class="node">
<title>13</title>
<polygon fill="none" stroke="black" points="543,-36 481,-36 481,0 543,0 543,-36"/>
<text text-anchor="start" x="489" y="-14.9" font-family="Times New Roman,serif" font-size="12.00">return %1</text>
</g>
<!-- 1&#45;&gt;13 -->
<g id="edge2" class="edge">
<title>1&#45;&gt;13</title>
<path fill="none" stroke="black" d="M705.23,-622.54C716.34,-604.94 731,-576.59 731,-549.5 731,-549.5 731,-549.5 731,-90 731,-53.31 618.39,-32.73 554.67,-24.02"/>
<polygon fill="black" stroke="black" points="555.25,-20.57 544.88,-22.73 554.33,-27.51 555.25,-20.57"/>
<text text-anchor="middle" x="742" y="-325.3" font-family="Times New Roman,serif" font-size="14.00">true</text>
</g>
<!-- 3 -->
<g id="node4" class="node">
<title>3</title>
<polygon fill="none" stroke="black" points="239.5,-488 144.5,-488 144.5,-452 239.5,-452 239.5,-488"/>
<text text-anchor="start" x="152.5" y="-473.4" font-family="Times New Roman,serif" font-size="12.00">%6 = arg$0[%4]</text>
<text text-anchor="start" x="152.5" y="-460.4" font-family="Times New Roman,serif" font-size="12.00">if (%6 &gt;= arg$1)</text>
</g>
<!-- 2&#45;&gt;3 -->
<g id="edge4" class="edge">
<title>2&#45;&gt;3</title>
<path fill="none" stroke="black" d="M437.67,-533.65C384.91,-520.19 305.05,-499.83 250.81,-486"/>
<polygon fill="black" stroke="black" points="252.01,-482.69 241.45,-483.61 250.28,-489.47 252.01,-482.69"/>
</g>
<!-- 4 -->
<g id="node5" class="node">
<title>4</title>
<polygon fill="none" stroke="black" points="132,-347 0,-347 0,-311 132,-311 132,-347"/>
<text text-anchor="start" x="8" y="-332.4" font-family="Times New Roman,serif" font-size="12.00">arg$2 = %4 + 1</text>
<text text-anchor="start" x="8" y="-319.4" font-family="Times New Roman,serif" font-size="12.00">goto JcInstRef(index=18)</text>
</g>
<!-- 3&#45;&gt;4 -->
<g id="edge6" class="edge">
<title>3&#45;&gt;4</title>
<path fill="none" stroke="black" d="M176.3,-451.68C154.39,-427.51 114.51,-383.51 89.18,-355.57"/>
<polygon fill="black" stroke="black" points="91.83,-353.28 82.52,-348.23 86.64,-357.99 91.83,-353.28"/>
<text text-anchor="middle" x="173" y="-422.8" font-family="Times New Roman,serif" font-size="14.00">false</text>
</g>
<!-- 5 -->
<g id="node6" class="node">
<title>5</title>
<polygon fill="none" stroke="black" points="239.5,-401 144.5,-401 144.5,-365 239.5,-365 239.5,-401"/>
<text text-anchor="start" x="152.5" y="-386.4" font-family="Times New Roman,serif" font-size="12.00">%8 = arg$0[%4]</text>
<text text-anchor="start" x="152.5" y="-373.4" font-family="Times New Roman,serif" font-size="12.00">if (%8 &lt;= arg$1)</text>
</g>
<!-- 3&#45;&gt;5 -->
<g id="edge5" class="edge">
<title>3&#45;&gt;5</title>
<path fill="none" stroke="black" d="M192,-451.8C192,-440.58 192,-425.67 192,-412.69"/>
<polygon fill="black" stroke="black" points="195.5,-412.98 192,-402.98 188.5,-412.98 195.5,-412.98"/>
<text text-anchor="middle" x="203" y="-422.8" font-family="Times New Roman,serif" font-size="14.00">true</text>
</g>
<!-- 10 -->
<g id="node11" class="node">
<title>10</title>
<polygon fill="none" stroke="black" points="202,-194 70,-194 70,-158 202,-158 202,-194"/>
<text text-anchor="start" x="78" y="-172.9" font-family="Times New Roman,serif" font-size="12.00">goto JcInstRef(index=23)</text>
</g>
<!-- 4&#45;&gt;10 -->
<g id="edge7" class="edge">
<title>4&#45;&gt;10</title>
<path fill="none" stroke="black" d="M60.7,-310.72C57.11,-295.94 54.14,-274.35 61,-257 69.62,-235.19 87.32,-215.85 103.35,-201.64"/>
<polygon fill="black" stroke="black" points="105.5,-204.41 110.86,-195.28 100.97,-199.07 105.5,-204.41"/>
</g>
<!-- 6 -->
<g id="node7" class="node">
<title>6</title>
<polygon fill="none" stroke="black" points="202,-293 70,-293 70,-257 202,-257 202,-293"/>
<text text-anchor="start" x="78" y="-278.4" font-family="Times New Roman,serif" font-size="12.00">arg$3 = %4 &#45; 1</text>
<text text-anchor="start" x="78" y="-265.4" font-family="Times New Roman,serif" font-size="12.00">goto JcInstRef(index=18)</text>
</g>
<!-- 5&#45;&gt;6 -->
<g id="edge9" class="edge">
<title>5&#45;&gt;6</title>
<path fill="none" stroke="black" d="M183,-364.97C174.24,-348.38 160.77,-322.88 150.49,-303.43"/>
<polygon fill="black" stroke="black" points="153.63,-301.89 145.87,-294.68 147.44,-305.16 153.63,-301.89"/>
<text text-anchor="middle" x="185" y="-325.3" font-family="Times New Roman,serif" font-size="14.00">false</text>
</g>
<!-- 7 -->
<g id="node8" class="node">
<title>7</title>
<polygon fill="none" stroke="black" points="321.5,-293 220.5,-293 220.5,-257 321.5,-257 321.5,-293"/>
<text text-anchor="start" x="228.5" y="-278.4" font-family="Times New Roman,serif" font-size="12.00">%10 = arg$0[%4]</text>
<text text-anchor="start" x="228.5" y="-265.4" font-family="Times New Roman,serif" font-size="12.00">if (%10 != arg$1)</text>
</g>
<!-- 5&#45;&gt;7 -->
<g id="edge8" class="edge">
<title>5&#45;&gt;7</title>
<path fill="none" stroke="black" d="M204.69,-364.97C217.29,-348.07 236.77,-321.94 251.36,-302.36"/>
<polygon fill="black" stroke="black" points="254,-304.66 257.17,-294.55 248.39,-300.48 254,-304.66"/>
<text text-anchor="middle" x="254" y="-325.3" font-family="Times New Roman,serif" font-size="14.00">true</text>
</g>
<!-- 6&#45;&gt;10 -->
<g id="edge10" class="edge">
<title>6&#45;&gt;10</title>
<path fill="none" stroke="black" d="M136,-256.66C136,-242.45 136,-222.06 136,-205.46"/>
<polygon fill="black" stroke="black" points="139.5,-205.71 136,-195.71 132.5,-205.71 139.5,-205.71"/>
</g>
<!-- 8 -->
<g id="node9" class="node">
<title>8</title>
<polygon fill="none" stroke="black" points="281.5,-194 220.5,-194 220.5,-158 281.5,-158 281.5,-194"/>
<text text-anchor="start" x="228.5" y="-172.9" font-family="Times New Roman,serif" font-size="12.00">%1 = %4</text>
</g>
<!-- 7&#45;&gt;8 -->
<g id="edge12" class="edge">
<title>7&#45;&gt;8</title>
<path fill="none" stroke="black" d="M267.42,-256.66C264.5,-242.45 260.29,-222.06 256.87,-205.46"/>
<polygon fill="black" stroke="black" points="260.3,-204.76 254.85,-195.67 253.44,-206.17 260.3,-204.76"/>
<text text-anchor="middle" x="276" y="-227.8" font-family="Times New Roman,serif" font-size="14.00">false</text>
</g>
<!-- 7&#45;&gt;10 -->
<g id="edge11" class="edge">
<title>7&#45;&gt;10</title>
<path fill="none" stroke="black" d="M246.86,-256.66C225.17,-241.07 193.12,-218.04 169.05,-200.74"/>
<polygon fill="black" stroke="black" points="171.32,-198.07 161.16,-195.07 167.23,-203.75 171.32,-198.07"/>
<text text-anchor="middle" x="230" y="-227.8" font-family="Times New Roman,serif" font-size="14.00">true</text>
</g>
<!-- 9 -->
<g id="node10" class="node">
<title>9</title>
<polygon fill="none" stroke="black" points="359,-109 227,-109 227,-73 359,-73 359,-109"/>
<text text-anchor="start" x="235" y="-87.9" font-family="Times New Roman,serif" font-size="12.00">goto JcInstRef(index=24)</text>
</g>
<!-- 8&#45;&gt;9 -->
<g id="edge13" class="edge">
<title>8&#45;&gt;9</title>
<path fill="none" stroke="black" d="M259.7,-157.8C265.3,-146.75 272.69,-132.14 279.09,-119.5"/>
<polygon fill="black" stroke="black" points="282.09,-121.31 283.48,-110.81 275.84,-118.15 282.09,-121.31"/>
</g>
<!-- 9&#45;&gt;13 -->
<g id="edge14" class="edge">
<title>9&#45;&gt;13</title>
<path fill="none" stroke="black" d="M346.85,-72.54C384.79,-60.24 434.88,-44 469.9,-32.65"/>
<polygon fill="black" stroke="black" points="470.84,-36.03 479.27,-29.61 468.68,-29.37 470.84,-36.03"/>
</g>
<!-- 12 -->
<g id="node13" class="node">
<title>12</title>
<polygon fill="none" stroke="black" points="545,-109 419,-109 419,-73 545,-73 545,-109"/>
<text text-anchor="start" x="427" y="-87.9" font-family="Times New Roman,serif" font-size="12.00">goto JcInstRef(index=2)</text>
</g>
<!-- 10&#45;&gt;12 -->
<g id="edge15" class="edge">
<title>10&#45;&gt;12</title>
<path fill="none" stroke="black" d="M177.78,-157.62C188.79,-153.44 200.74,-149.25 212,-146 276.96,-127.25 352.56,-112.74 407.21,-103.5"/>
<polygon fill="black" stroke="black" points="407.76,-106.96 417.05,-101.86 406.61,-100.05 407.76,-106.96"/>
</g>
<!-- 11 -->
<g id="node12" class="node">
<title>11</title>
<polygon fill="none" stroke="black" points="664.5,-206 299.5,-206 299.5,-146 664.5,-146 664.5,-206"/>
<text text-anchor="start" x="307.5" y="-192.4" font-family="Times New Roman,serif" font-size="12.00">catch (%12: org.utbot.jcdb.impl.types.JcClassTypeImpl@612d877d)</text>
<text text-anchor="start" x="307.5" y="-179.4" font-family="Times New Roman,serif" font-size="12.00">%14 = org.utbot.jcdb.impl.bytecode.JcClassOrInterfaceImpl@f0a91421.out</text>
<text text-anchor="start" x="307.5" y="-166.4" font-family="Times New Roman,serif" font-size="12.00">%14.println(&quot;Exception&quot;)</text>
<text text-anchor="start" x="307.5" y="-153.4" font-family="Times New Roman,serif" font-size="12.00">goto JcInstRef(index=23)</text>
</g>
<!-- 11&#45;&gt;12 -->
<g id="edge16" class="edge">
<title>11&#45;&gt;12</title>
<path fill="none" stroke="black" d="M482,-145.5C482,-137.46 482,-128.76 482,-120.75"/>
<polygon fill="black" stroke="black" points="485.5,-120.83 482,-110.83 478.5,-120.83 485.5,-120.83"/>
</g>
<!-- 12&#45;&gt;1 -->
<g id="edge17" class="edge">
<title>12&#45;&gt;1</title>
<path fill="none" stroke="black" d="M545.31,-98.34C585.34,-104.96 636.44,-118.47 674,-146 686.43,-155.11 693,-159.59 693,-175 693,-549.5 693,-549.5 693,-549.5 693,-570.18 693,-593.52 693,-611.32"/>
<polygon fill="black" stroke="black" points="689.5,-611.14 693,-621.14 696.5,-611.14 689.5,-611.14"/>
</g>
</g>
</svg>
