<?xml version="1.0" encoding="UTF-8" standalone="no"?>
<!DOCTYPE svg PUBLIC "-//W3C//DTD SVG 1.1//EN"
 "http://www.w3.org/Graphics/SVG/1.1/DTD/svg11.dtd">
<!-- Generated by graphviz version 7.0.4 (20221203.1631)
 -->
<!-- Title: jcGraph Pages: 1 -->
<svg width="569pt" height="740pt"
     viewBox="0.00 0.00 569.00 740.00" xmlns="http://www.w3.org/2000/svg">
<g id="graph0" class="graph" transform="scale(1 1) rotate(0) translate(4 736)">
<title>jcGraph</title>
<!-- 0 -->
<g id="node1" class="node">
<title>0</title>
<polygon fill="none" stroke="black" points="561,-732 435,-732 435,-696 561,-696 561,-732"/>
<text text-anchor="start" x="443" y="-717.4" font-family="Times New Roman,serif" font-size="12.00">%1 = 2147483647</text>
<text text-anchor="start" x="443" y="-704.4" font-family="Times New Roman,serif" font-size="12.00">goto JcInstRef(index=2)</text>
</g>
<!-- 1 -->
<g id="node2" class="node">
<title>1</title>
<polygon fill="none" stroke="black" points="547,-659 449,-659 449,-623 547,-623 547,-659"/>
<text text-anchor="start" x="457" y="-637.9" font-family="Times New Roman,serif" font-size="12.00">if (arg$2 &gt; arg$3)</text>
</g>
<!-- 0&#45;&gt;1 -->
<g id="edge1" class="edge">
<title>0&#45;&gt;1</title>
<path fill="none" stroke="black" d="M498,-695.81C498,-688.23 498,-679.1 498,-670.54"/>
<polygon fill="black" stroke="black" points="501.5,-670.54 498,-660.54 494.5,-670.54 501.5,-670.54"/>
</g>
<!-- 2 -->
<g id="node3" class="node">
<title>2</title>
<polygon fill="none" stroke="black" points="400,-572 292,-572 292,-525 400,-525 400,-572"/>
<text text-anchor="start" x="300" y="-558.4" font-family="Times New Roman,serif" font-size="12.00">%2 = arg$3 &#45; arg$2</text>
<text text-anchor="start" x="300" y="-545.4" font-family="Times New Roman,serif" font-size="12.00">%3 = %2 / 2</text>
<text text-anchor="start" x="300" y="-532.4" font-family="Times New Roman,serif" font-size="12.00">%4 = arg$2 + %3</text>
</g>
<!-- 1&#45;&gt;2 -->
<g id="edge3" class="edge">
<title>1&#45;&gt;2</title>
<path fill="none" stroke="black" d="M468.69,-622.55C447.61,-610 418.71,-592.79 394.25,-578.23"/>
<polygon fill="black" stroke="black" points="396.11,-575.26 385.73,-573.16 392.53,-581.28 396.11,-575.26"/>
<text text-anchor="middle" x="448" y="-593.8" font-family="Times New Roman,serif" font-size="14.00">false</text>
</g>
<!-- 13 -->
<g id="node14" class="node">
<title>13</title>
<polygon fill="none" stroke="black" points="424,-36 362,-36 362,0 424,0 424,-36"/>
<text text-anchor="start" x="370" y="-14.9" font-family="Times New Roman,serif" font-size="12.00">return %1</text>
</g>
<!-- 1&#45;&gt;13 -->
<g id="edge2" class="edge">
<title>1&#45;&gt;13</title>
<path fill="none" stroke="black" d="M510.23,-622.54C521.34,-604.94 536,-576.59 536,-549.5 536,-549.5 536,-549.5 536,-90 536,-44.78 477.91,-28.36 435.78,-22.4"/>
<polygon fill="black" stroke="black" points="436.24,-18.93 425.88,-21.16 435.37,-25.87 436.24,-18.93"/>
<text text-anchor="middle" x="547" y="-325.3" font-family="Times New Roman,serif" font-size="14.00">true</text>
</g>
<!-- 3 -->
<g id="node4" class="node">
<title>3</title>
<polygon fill="none" stroke="black" points="228.5,-488 133.5,-488 133.5,-452 228.5,-452 228.5,-488"/>
<text text-anchor="start" x="141.5" y="-473.4" font-family="Times New Roman,serif" font-size="12.00">%6 = arg$0[%4]</text>
<text text-anchor="start" x="141.5" y="-460.4" font-family="Times New Roman,serif" font-size="12.00">if (%6 &gt;= arg$1)</text>
</g>
<!-- 2&#45;&gt;3 -->
<g id="edge4" class="edge">
<title>2&#45;&gt;3</title>
<path fill="none" stroke="black" d="M296.49,-524.55C275.14,-514.65 250.25,-503.11 229.06,-493.28"/>
<polygon fill="black" stroke="black" points="230.58,-490.13 220.04,-489.1 227.64,-496.48 230.58,-490.13"/>
</g>
<!-- 4 -->
<g id="node5" class="node">
<title>4</title>
<polygon fill="none" stroke="black" points="132,-347 0,-347 0,-311 132,-311 132,-347"/>
<text text-anchor="start" x="8" y="-332.4" font-family="Times New Roman,serif" font-size="12.00">arg$2 = %4 + 1</text>
<text text-anchor="start" x="8" y="-319.4" font-family="Times New Roman,serif" font-size="12.00">goto JcInstRef(index=18)</text>
</g>
<!-- 3&#45;&gt;4 -->
<g id="edge6" class="edge">
<title>3&#45;&gt;4</title>
<path fill="none" stroke="black" d="M165.97,-451.62C161.16,-446.02 155.83,-439.77 151,-434 128.96,-407.68 104.16,-377.24 87.06,-356.12"/>
<polygon fill="black" stroke="black" points="89.97,-354.15 80.96,-348.58 84.53,-358.56 89.97,-354.15"/>
<text text-anchor="middle" x="164" y="-422.8" font-family="Times New Roman,serif" font-size="14.00">false</text>
</g>
<!-- 5 -->
<g id="node6" class="node">
<title>5</title>
<polygon fill="none" stroke="black" points="228.5,-401 133.5,-401 133.5,-365 228.5,-365 228.5,-401"/>
<text text-anchor="start" x="141.5" y="-386.4" font-family="Times New Roman,serif" font-size="12.00">%8 = arg$0[%4]</text>
<text text-anchor="start" x="141.5" y="-373.4" font-family="Times New Roman,serif" font-size="12.00">if (%8 &lt;= arg$1)</text>
</g>
<!-- 3&#45;&gt;5 -->
<g id="edge5" class="edge">
<title>3&#45;&gt;5</title>
<path fill="none" stroke="black" d="M181,-451.8C181,-440.58 181,-425.67 181,-412.69"/>
<polygon fill="black" stroke="black" points="184.5,-412.98 181,-402.98 177.5,-412.98 184.5,-412.98"/>
<text text-anchor="middle" x="192" y="-422.8" font-family="Times New Roman,serif" font-size="14.00">true</text>
</g>
<!-- 10 -->
<g id="node11" class="node">
<title>10</title>
<polygon fill="none" stroke="black" points="202,-194 70,-194 70,-158 202,-158 202,-194"/>
<text text-anchor="start" x="78" y="-172.9" font-family="Times New Roman,serif" font-size="12.00">goto JcInstRef(index=23)</text>
</g>
<!-- 4&#45;&gt;10 -->
<g id="edge7" class="edge">
<title>4&#45;&gt;10</title>
<path fill="none" stroke="black" d="M60.7,-310.72C57.11,-295.94 54.14,-274.35 61,-257 69.62,-235.19 87.32,-215.85 103.35,-201.64"/>
<polygon fill="black" stroke="black" points="105.5,-204.41 110.86,-195.28 100.97,-199.07 105.5,-204.41"/>
</g>
<!-- 6 -->
<g id="node7" class="node">
<title>6</title>
<polygon fill="none" stroke="black" points="202,-293 70,-293 70,-257 202,-257 202,-293"/>
<text text-anchor="start" x="78" y="-278.4" font-family="Times New Roman,serif" font-size="12.00">arg$3 = %4 &#45; 1</text>
<text text-anchor="start" x="78" y="-265.4" font-family="Times New Roman,serif" font-size="12.00">goto JcInstRef(index=18)</text>
</g>
<!-- 5&#45;&gt;6 -->
<g id="edge9" class="edge">
<title>5&#45;&gt;6</title>
<path fill="none" stroke="black" d="M173.77,-364.97C166.76,-348.45 156,-323.12 147.76,-303.7"/>
<polygon fill="black" stroke="black" points="151.08,-302.57 143.95,-294.73 144.64,-305.31 151.08,-302.57"/>
<text text-anchor="middle" x="178" y="-325.3" font-family="Times New Roman,serif" font-size="14.00">false</text>
</g>
<!-- 7 -->
<g id="node8" class="node">
<title>7</title>
<polygon fill="none" stroke="black" points="321.5,-293 220.5,-293 220.5,-257 321.5,-257 321.5,-293"/>
<text text-anchor="start" x="228.5" y="-278.4" font-family="Times New Roman,serif" font-size="12.00">%10 = arg$0[%4]</text>
<text text-anchor="start" x="228.5" y="-265.4" font-family="Times New Roman,serif" font-size="12.00">if (%10 != arg$1)</text>
</g>
<!-- 5&#45;&gt;7 -->
<g id="edge8" class="edge">
<title>5&#45;&gt;7</title>
<path fill="none" stroke="black" d="M195.46,-364.97C209.87,-347.99 232.2,-321.7 248.85,-302.09"/>
<polygon fill="black" stroke="black" points="251.49,-304.38 255.3,-294.49 246.16,-299.85 251.49,-304.38"/>
<text text-anchor="middle" x="250" y="-325.3" font-family="Times New Roman,serif" font-size="14.00">true</text>
</g>
<!-- 6&#45;&gt;10 -->
<g id="edge10" class="edge">
<title>6&#45;&gt;10</title>
<path fill="none" stroke="black" d="M136,-256.66C136,-242.45 136,-222.06 136,-205.46"/>
<polygon fill="black" stroke="black" points="139.5,-205.71 136,-195.71 132.5,-205.71 139.5,-205.71"/>
</g>
<!-- 8 -->
<g id="node9" class="node">
<title>8</title>
<polygon fill="none" stroke="black" points="281.5,-194 220.5,-194 220.5,-158 281.5,-158 281.5,-194"/>
<text text-anchor="start" x="228.5" y="-172.9" font-family="Times New Roman,serif" font-size="12.00">%1 = %4</text>
</g>
<!-- 7&#45;&gt;8 -->
<g id="edge12" class="edge">
<title>7&#45;&gt;8</title>
<path fill="none" stroke="black" d="M267.42,-256.66C264.5,-242.45 260.29,-222.06 256.87,-205.46"/>
<polygon fill="black" stroke="black" points="260.3,-204.76 254.85,-195.67 253.44,-206.17 260.3,-204.76"/>
<text text-anchor="middle" x="276" y="-227.8" font-family="Times New Roman,serif" font-size="14.00">false</text>
</g>
<!-- 7&#45;&gt;10 -->
<g id="edge11" class="edge">
<title>7&#45;&gt;10</title>
<path fill="none" stroke="black" d="M246.86,-256.66C225.17,-241.07 193.12,-218.04 169.05,-200.74"/>
<polygon fill="black" stroke="black" points="171.32,-198.07 161.16,-195.07 167.23,-203.75 171.32,-198.07"/>
<text text-anchor="middle" x="230" y="-227.8" font-family="Times New Roman,serif" font-size="14.00">true</text>
</g>
<!-- 9 -->
<g id="node10" class="node">
<title>9</title>
<polygon fill="none" stroke="black" points="317,-109 185,-109 185,-73 317,-73 317,-109"/>
<text text-anchor="start" x="193" y="-87.9" font-family="Times New Roman,serif" font-size="12.00">goto JcInstRef(index=24)</text>
</g>
<!-- 8&#45;&gt;9 -->
<g id="edge13" class="edge">
<title>8&#45;&gt;9</title>
<path fill="none" stroke="black" d="M251,-157.8C251,-147.08 251,-133.01 251,-120.64"/>
<polygon fill="black" stroke="black" points="254.5,-120.97 251,-110.97 247.5,-120.97 254.5,-120.97"/>
</g>
<!-- 9&#45;&gt;13 -->
<g id="edge14" class="edge">
<title>9&#45;&gt;13</title>
<path fill="none" stroke="black" d="M285.74,-72.63C305.54,-62.73 330.5,-50.25 351.35,-39.82"/>
<polygon fill="black" stroke="black" points="352.8,-43.02 360.17,-35.41 349.66,-36.75 352.8,-43.02"/>
</g>
<!-- 12 -->
<g id="node13" class="node">
<title>12</title>
<polygon fill="none" stroke="black" points="461,-109 335,-109 335,-73 461,-73 461,-109"/>
<text text-anchor="start" x="343" y="-87.9" font-family="Times New Roman,serif" font-size="12.00">goto JcInstRef(index=2)</text>
</g>
<!-- 10&#45;&gt;12 -->
<g id="edge15" class="edge">
<title>10&#45;&gt;12</title>
<path fill="none" stroke="black" d="M179.99,-157.52C190.42,-153.56 201.56,-149.5 212,-146 248.53,-133.75 289.63,-121.65 323.89,-112.01"/>
<polygon fill="black" stroke="black" points="324.61,-115.45 333.29,-109.38 322.72,-108.7 324.61,-115.45"/>
</g>
<!-- 11 -->
<g id="node12" class="node">
<title>11</title>
<polygon fill="none" stroke="black" points="470,-206 300,-206 300,-146 470,-146 470,-206"/>
<text text-anchor="start" x="308" y="-192.4" font-family="Times New Roman,serif" font-size="12.00">catch (%12: java.lang.Throwable)</text>
<text text-anchor="start" x="308" y="-179.4" font-family="Times New Roman,serif" font-size="12.00">%14 = java.lang.System.out</text>
<text text-anchor="start" x="308" y="-166.4" font-family="Times New Roman,serif" font-size="12.00">%14.println(&quot;Exception&quot;)</text>
<text text-anchor="start" x="308" y="-153.4" font-family="Times New Roman,serif" font-size="12.00">goto JcInstRef(index=23)</text>
</g>
<!-- 11&#45;&gt;12 -->
<g id="edge16" class="edge">
<title>11&#45;&gt;12</title>
<path fill="none" stroke="black" d="M389.62,-145.5C390.89,-137.36 392.28,-128.55 393.54,-120.47"/>
<polygon fill="black" stroke="black" points="396.96,-121.24 395.05,-110.82 390.05,-120.15 396.96,-121.24"/>
</g>
<!-- 12&#45;&gt;1 -->
<g id="edge17" class="edge">
<title>12&#45;&gt;1</title>
<path fill="none" stroke="black" d="M443.32,-109.39C469.78,-122.81 498,-144.32 498,-175 498,-549.5 498,-549.5 498,-549.5 498,-570.18 498,-593.52 498,-611.32"/>
<polygon fill="black" stroke="black" points="494.5,-611.14 498,-621.14 501.5,-611.14 494.5,-611.14"/>
</g>
</g>
</svg>
