<?xml version="1.0" encoding="UTF-8" standalone="no"?>
<!DOCTYPE svg PUBLIC "-//W3C//DTD SVG 1.1//EN"
 "http://www.w3.org/Graphics/SVG/1.1/DTD/svg11.dtd">
<!-- Generated by graphviz version 7.0.4 (20221203.1631)
 -->
<!-- Title: jcGraph Pages: 1 -->
<svg width="880pt" height="714pt"
     viewBox="0.00 0.00 880.00 714.00" xmlns="http://www.w3.org/2000/svg">
<g id="graph0" class="graph" transform="scale(1 1) rotate(0) translate(4 710)">
<title>jcGraph</title>
<!-- 0 -->
<g id="node1" class="node">
<title>0</title>
<polygon fill="none" stroke="black" points="275,-706 103,-706 103,-633 275,-633 275,-706"/>
<text text-anchor="start" x="111" y="-692.4" font-family="Times New Roman,serif" font-size="12.00">%0 = new java.io.BufferedReader</text>
<text text-anchor="start" x="111" y="-679.4" font-family="Times New Roman,serif" font-size="12.00">%1 = new java.io.FileReader</text>
<text text-anchor="start" x="111" y="-666.4" font-family="Times New Roman,serif" font-size="12.00">%1.&lt;init&gt;(arg$0)</text>
<text text-anchor="start" x="111" y="-653.4" font-family="Times New Roman,serif" font-size="12.00">%0.&lt;init&gt;(%1)</text>
<text text-anchor="start" x="111" y="-640.4" font-family="Times New Roman,serif" font-size="12.00">goto JcInstRef(index=5)</text>
</g>
<!-- 1 -->
<g id="node2" class="node">
<title>1</title>
<polygon fill="none" stroke="black" points="244.5,-596 133.5,-596 133.5,-560 244.5,-560 244.5,-596"/>
<text text-anchor="start" x="141.5" y="-574.9" font-family="Times New Roman,serif" font-size="12.00">%4 = %0.readLine()</text>
</g>
<!-- 0&#45;&gt;1 -->
<g id="edge1" class="edge">
<title>0&#45;&gt;1</title>
<path fill="none" stroke="black" d="M189,-632.61C189,-624.35 189,-615.66 189,-607.74"/>
<polygon fill="black" stroke="black" points="192.5,-607.98 189,-597.98 185.5,-607.98 192.5,-607.98"/>
</g>
<!-- 2 -->
<g id="node3" class="node">
<title>2</title>
<polygon fill="none" stroke="black" points="184.5,-517.5 101.5,-517.5 101.5,-481.5 184.5,-481.5 184.5,-517.5"/>
<text text-anchor="start" x="109.5" y="-496.4" font-family="Times New Roman,serif" font-size="12.00">if (%4 == null)</text>
</g>
<!-- 1&#45;&gt;2 -->
<g id="edge2" class="edge">
<title>1&#45;&gt;2</title>
<path fill="none" stroke="black" d="M178.56,-559.64C172.86,-550.15 165.66,-538.19 159.24,-527.51"/>
<polygon fill="black" stroke="black" points="162.33,-525.85 154.18,-519.09 156.33,-529.46 162.33,-525.85"/>
</g>
<!-- 3 -->
<g id="node4" class="node">
<title>3</title>
<polygon fill="none" stroke="black" points="276,-425 150,-425 150,-389 276,-389 276,-425"/>
<text text-anchor="start" x="158" y="-403.9" font-family="Times New Roman,serif" font-size="12.00">goto JcInstRef(index=5)</text>
</g>
<!-- 2&#45;&gt;3 -->
<g id="edge4" class="edge">
<title>2&#45;&gt;3</title>
<path fill="none" stroke="black" d="M150.47,-481.02C155.82,-469.58 163.71,-454.64 173,-443 175.77,-439.53 178.91,-436.13 182.19,-432.89"/>
<polygon fill="black" stroke="black" points="184.39,-435.62 189.36,-426.26 179.64,-430.48 184.39,-435.62"/>
<text text-anchor="middle" x="186" y="-446.8" font-family="Times New Roman,serif" font-size="14.00">false</text>
</g>
<!-- 4 -->
<g id="node5" class="node">
<title>4</title>
<polygon fill="none" stroke="black" points="132,-425 0,-425 0,-389 132,-389 132,-425"/>
<text text-anchor="start" x="8" y="-410.4" font-family="Times New Roman,serif" font-size="12.00">%0.close()</text>
<text text-anchor="start" x="8" y="-397.4" font-family="Times New Roman,serif" font-size="12.00">goto JcInstRef(index=17)</text>
</g>
<!-- 2&#45;&gt;4 -->
<g id="edge3" class="edge">
<title>2&#45;&gt;4</title>
<path fill="none" stroke="black" d="M128.15,-481.05C116.76,-467.65 100.84,-448.95 87.97,-433.82"/>
<polygon fill="black" stroke="black" points="90.93,-431.9 81.78,-426.55 85.6,-436.43 90.93,-431.9"/>
<text text-anchor="middle" x="118" y="-446.8" font-family="Times New Roman,serif" font-size="14.00">true</text>
</g>
<!-- 3&#45;&gt;1 -->
<g id="edge5" class="edge">
<title>3&#45;&gt;1</title>
<path fill="none" stroke="black" d="M210.57,-425.1C206.45,-454.11 198.05,-513.24 193.04,-548.56"/>
<polygon fill="black" stroke="black" points="189.63,-547.66 191.69,-558.05 196.56,-548.64 189.63,-547.66"/>
</g>
<!-- 10 -->
<g id="node11" class="node">
<title>10</title>
<polygon fill="none" stroke="black" points="132,-352 0,-352 0,-316 132,-316 132,-352"/>
<text text-anchor="start" x="8" y="-330.9" font-family="Times New Roman,serif" font-size="12.00">goto JcInstRef(index=20)</text>
</g>
<!-- 4&#45;&gt;10 -->
<g id="edge6" class="edge">
<title>4&#45;&gt;10</title>
<path fill="none" stroke="black" d="M66,-388.81C66,-381.23 66,-372.1 66,-363.54"/>
<polygon fill="black" stroke="black" points="69.5,-363.54 66,-353.54 62.5,-363.54 69.5,-363.54"/>
</g>
<!-- 5 -->
<g id="node6" class="node">
<title>5</title>
<polygon fill="none" stroke="black" points="619,-687.5 293,-687.5 293,-651.5 619,-651.5 619,-687.5"/>
<text text-anchor="start" x="301" y="-666.4" font-family="Times New Roman,serif" font-size="12.00">catch (%9: org.utbot.jcdb.impl.types.JcClassTypeImpl@612d877d)</text>
</g>
<!-- 6 -->
<g id="node7" class="node">
<title>6</title>
<polygon fill="none" stroke="black" points="489,-596 423,-596 423,-560 489,-560 489,-596"/>
<text text-anchor="start" x="431" y="-574.9" font-family="Times New Roman,serif" font-size="12.00">%0.close()</text>
</g>
<!-- 5&#45;&gt;6 -->
<g id="edge7" class="edge">
<title>5&#45;&gt;6</title>
<path fill="none" stroke="black" d="M456,-651.24C456,-638.86 456,-621.9 456,-607.52"/>
<polygon fill="black" stroke="black" points="459.5,-607.72 456,-597.72 452.5,-607.72 459.5,-607.72"/>
</g>
<!-- 7 -->
<g id="node8" class="node">
<title>7</title>
<polygon fill="none" stroke="black" points="522,-517.5 390,-517.5 390,-481.5 522,-481.5 522,-517.5"/>
<text text-anchor="start" x="398" y="-496.4" font-family="Times New Roman,serif" font-size="12.00">goto JcInstRef(index=16)</text>
</g>
<!-- 6&#45;&gt;7 -->
<g id="edge8" class="edge">
<title>6&#45;&gt;7</title>
<path fill="none" stroke="black" d="M456,-559.64C456,-550.64 456,-539.42 456,-529.17"/>
<polygon fill="black" stroke="black" points="459.5,-529.3 456,-519.3 452.5,-529.3 459.5,-529.3"/>
</g>
<!-- 9 -->
<g id="node10" class="node">
<title>9</title>
<polygon fill="none" stroke="black" points="668,-425 606,-425 606,-389 668,-389 668,-425"/>
<text text-anchor="start" x="614" y="-403.9" font-family="Times New Roman,serif" font-size="12.00">throw %9</text>
</g>
<!-- 7&#45;&gt;9 -->
<g id="edge9" class="edge">
<title>7&#45;&gt;9</title>
<path fill="none" stroke="black" d="M490.9,-481.05C520.71,-466.15 563.66,-444.67 595.28,-428.86"/>
<polygon fill="black" stroke="black" points="596.8,-432.01 604.18,-424.41 593.67,-425.75 596.8,-432.01"/>
</g>
<!-- 8 -->
<g id="node9" class="node">
<title>8</title>
<polygon fill="none" stroke="black" points="872,-523 540,-523 540,-476 872,-476 872,-523"/>
<text text-anchor="start" x="548" y="-509.4" font-family="Times New Roman,serif" font-size="12.00">catch (%12: org.utbot.jcdb.impl.types.JcClassTypeImpl@612d877d)</text>
<text text-anchor="start" x="548" y="-496.4" font-family="Times New Roman,serif" font-size="12.00">%9.addSuppressed(%12)</text>
<text text-anchor="start" x="548" y="-483.4" font-family="Times New Roman,serif" font-size="12.00">goto JcInstRef(index=16)</text>
</g>
<!-- 8&#45;&gt;9 -->
<g id="edge10" class="edge">
<title>8&#45;&gt;9</title>
<path fill="none" stroke="black" d="M688.59,-475.66C679.01,-463.11 667.09,-447.47 657.12,-434.39"/>
<polygon fill="black" stroke="black" points="660.03,-432.44 651.19,-426.61 654.47,-436.68 660.03,-432.44"/>
</g>
<!-- 12 -->
<g id="node13" class="node">
<title>12</title>
<polygon fill="none" stroke="black" points="278,-279 104,-279 104,-243 278,-243 278,-279"/>
<text text-anchor="start" x="112" y="-257.9" font-family="Times New Roman,serif" font-size="12.00">%17 = new java.io.BufferedWriter</text>
</g>
<!-- 10&#45;&gt;12 -->
<g id="edge11" class="edge">
<title>10&#45;&gt;12</title>
<path fill="none" stroke="black" d="M96.58,-315.63C112.77,-306.43 132.87,-295.02 150.36,-285.08"/>
<polygon fill="black" stroke="black" points="152.02,-288.17 158.99,-280.18 148.56,-282.08 152.02,-288.17"/>
</g>
<!-- 11 -->
<g id="node12" class="node">
<title>11</title>
<polygon fill="none" stroke="black" points="481.5,-352 150.5,-352 150.5,-316 481.5,-316 481.5,-352"/>
<text text-anchor="start" x="158.5" y="-337.4" font-family="Times New Roman,serif" font-size="12.00">catch (%15: org.utbot.jcdb.impl.types.JcClassTypeImpl@8828475e)</text>
<text text-anchor="start" x="158.5" y="-324.4" font-family="Times New Roman,serif" font-size="12.00">goto JcInstRef(index=20)</text>
</g>
<!-- 11&#45;&gt;12 -->
<g id="edge12" class="edge">
<title>11&#45;&gt;12</title>
<path fill="none" stroke="black" d="M285.42,-315.63C269.23,-306.43 249.13,-295.02 231.64,-285.08"/>
<polygon fill="black" stroke="black" points="233.44,-282.08 223.01,-280.18 229.98,-288.17 233.44,-282.08"/>
</g>
<!-- 13 -->
<g id="node14" class="node">
<title>13</title>
<polygon fill="none" stroke="black" points="267,-206 115,-206 115,-146 267,-146 267,-206"/>
<text text-anchor="start" x="123" y="-192.4" font-family="Times New Roman,serif" font-size="12.00">%18 = new java.io.FileWriter</text>
<text text-anchor="start" x="123" y="-179.4" font-family="Times New Roman,serif" font-size="12.00">%18.&lt;init&gt;(arg$1)</text>
<text text-anchor="start" x="123" y="-166.4" font-family="Times New Roman,serif" font-size="12.00">%17.&lt;init&gt;(%18)</text>
<text text-anchor="start" x="123" y="-153.4" font-family="Times New Roman,serif" font-size="12.00">%17.close()</text>
</g>
<!-- 12&#45;&gt;13 -->
<g id="edge13" class="edge">
<title>12&#45;&gt;13</title>
<path fill="none" stroke="black" d="M191,-242.8C191,-235.47 191,-226.58 191,-217.74"/>
<polygon fill="black" stroke="black" points="194.5,-217.79 191,-207.79 187.5,-217.79 194.5,-217.79"/>
</g>
<!-- 14 -->
<g id="node15" class="node">
<title>14</title>
<polygon fill="none" stroke="black" points="257,-109 125,-109 125,-73 257,-73 257,-109"/>
<text text-anchor="start" x="133" y="-87.9" font-family="Times New Roman,serif" font-size="12.00">goto JcInstRef(index=28)</text>
</g>
<!-- 13&#45;&gt;14 -->
<g id="edge14" class="edge">
<title>13&#45;&gt;14</title>
<path fill="none" stroke="black" d="M191,-145.5C191,-137.46 191,-128.76 191,-120.75"/>
<polygon fill="black" stroke="black" points="194.5,-120.83 191,-110.83 187.5,-120.83 194.5,-120.83"/>
</g>
<!-- 16 -->
<g id="node17" class="node">
<title>16</title>
<polygon fill="none" stroke="black" points="343,-36 289,-36 289,0 343,0 343,-36"/>
<text text-anchor="start" x="297" y="-14.9" font-family="Times New Roman,serif" font-size="12.00">return</text>
</g>
<!-- 14&#45;&gt;16 -->
<g id="edge15" class="edge">
<title>14&#45;&gt;16</title>
<path fill="none" stroke="black" d="M221.58,-72.63C238.82,-62.84 260.49,-50.53 278.72,-40.18"/>
<polygon fill="black" stroke="black" points="280.43,-43.23 287.4,-35.25 276.98,-37.14 280.43,-43.23"/>
</g>
<!-- 15 -->
<g id="node16" class="node">
<title>15</title>
<polygon fill="none" stroke="black" points="606.5,-109 275.5,-109 275.5,-73 606.5,-73 606.5,-109"/>
<text text-anchor="start" x="283.5" y="-94.4" font-family="Times New Roman,serif" font-size="12.00">catch (%21: org.utbot.jcdb.impl.types.JcClassTypeImpl@8828475e)</text>
<text text-anchor="start" x="283.5" y="-81.4" font-family="Times New Roman,serif" font-size="12.00">goto JcInstRef(index=28)</text>
</g>
<!-- 15&#45;&gt;16 -->
<g id="edge16" class="edge">
<title>15&#45;&gt;16</title>
<path fill="none" stroke="black" d="M410.42,-72.63C393.18,-62.84 371.51,-50.53 353.28,-40.18"/>
<polygon fill="black" stroke="black" points="355.02,-37.14 344.6,-35.25 351.57,-43.23 355.02,-37.14"/>
</g>
</g>
</svg>
