<?xml version="1.0" encoding="UTF-8" standalone="no"?>
<!DOCTYPE svg PUBLIC "-//W3C//DTD SVG 1.1//EN"
 "http://www.w3.org/Graphics/SVG/1.1/DTD/svg11.dtd">
<!-- Generated by graphviz version 7.0.4 (20221203.1631)
 -->
<!-- Title: jcGraph Pages: 1 -->
<svg width="404pt" height="596pt"
     viewBox="0.00 0.00 404.00 596.00" xmlns="http://www.w3.org/2000/svg">
<g id="graph0" class="graph" transform="scale(1 1) rotate(0) translate(4 592)">
<title>jcGraph</title>
<!-- 0 -->
<g id="node1" class="node">
<title>0</title>
<polygon fill="none" stroke="black" points="396,-588 270,-588 270,-552 396,-552 396,-588"/>
<text text-anchor="start" x="278" y="-573.4" font-family="Times New Roman,serif" font-size="12.00">%1 = 2147483647</text>
<text text-anchor="start" x="278" y="-560.4" font-family="Times New Roman,serif" font-size="12.00">goto JcInstRef(index=2)</text>
</g>
<!-- 1 -->
<g id="node2" class="node">
<title>1</title>
<polygon fill="none" stroke="black" points="382,-515 284,-515 284,-479 382,-479 382,-515"/>
<text text-anchor="start" x="292" y="-493.9" font-family="Times New Roman,serif" font-size="12.00">if (arg$2 &gt; arg$3)</text>
</g>
<!-- 0&#45;&gt;1 -->
<g id="edge1" class="edge">
<title>0&#45;&gt;1</title>
<path fill="none" stroke="black" d="M333,-551.81C333,-544.23 333,-535.1 333,-526.54"/>
<polygon fill="black" stroke="black" points="336.5,-526.54 333,-516.54 329.5,-526.54 336.5,-526.54"/>
</g>
<!-- 2 -->
<g id="node3" class="node">
<title>2</title>
<polygon fill="none" stroke="black" points="305,-428 197,-428 197,-355 305,-355 305,-428"/>
<text text-anchor="start" x="205" y="-414.4" font-family="Times New Roman,serif" font-size="12.00">%2 = arg$3 &#45; arg$2</text>
<text text-anchor="start" x="205" y="-401.4" font-family="Times New Roman,serif" font-size="12.00">%3 = %2 / 2</text>
<text text-anchor="start" x="205" y="-388.4" font-family="Times New Roman,serif" font-size="12.00">%4 = arg$2 + %3</text>
<text text-anchor="start" x="205" y="-375.4" font-family="Times New Roman,serif" font-size="12.00">%6 = arg$0[%4]</text>
<text text-anchor="start" x="205" y="-362.4" font-family="Times New Roman,serif" font-size="12.00">if (%6 &gt;= arg$1)</text>
</g>
<!-- 1&#45;&gt;2 -->
<g id="edge3" class="edge">
<title>1&#45;&gt;2</title>
<path fill="none" stroke="black" d="M310.7,-478.58C304.6,-473.28 298.24,-467.21 293,-461 287.05,-453.95 281.37,-445.97 276.22,-438.02"/>
<polygon fill="black" stroke="black" points="279.28,-436.31 271.02,-429.67 273.34,-440.01 279.28,-436.31"/>
<text text-anchor="middle" x="306" y="-449.8" font-family="Times New Roman,serif" font-size="14.00">false</text>
</g>
<!-- 9 -->
<g id="node10" class="node">
<title>9</title>
<polygon fill="none" stroke="black" points="283,-36 221,-36 221,0 283,0 283,-36"/>
<text text-anchor="start" x="229" y="-14.9" font-family="Times New Roman,serif" font-size="12.00">return %1</text>
</g>
<!-- 1&#45;&gt;9 -->
<g id="edge2" class="edge">
<title>1&#45;&gt;9</title>
<path fill="none" stroke="black" d="M343.59,-478.76C354.83,-458.77 371,-424.47 371,-392.5 371,-392.5 371,-392.5 371,-90 371,-53.26 328.64,-35.08 294.47,-26.4"/>
<polygon fill="black" stroke="black" points="295.27,-23 284.74,-24.15 293.69,-29.81 295.27,-23"/>
<text text-anchor="middle" x="382" y="-228.3" font-family="Times New Roman,serif" font-size="14.00">true</text>
</g>
<!-- 3 -->
<g id="node4" class="node">
<title>3</title>
<polygon fill="none" stroke="black" points="318,-250 186,-250 186,-214 318,-214 318,-250"/>
<text text-anchor="start" x="194" y="-235.4" font-family="Times New Roman,serif" font-size="12.00">arg$2 = %4 + 1</text>
<text text-anchor="start" x="194" y="-222.4" font-family="Times New Roman,serif" font-size="12.00">goto JcInstRef(index=18)</text>
</g>
<!-- 2&#45;&gt;3 -->
<g id="edge5" class="edge">
<title>2&#45;&gt;3</title>
<path fill="none" stroke="black" d="M251.23,-354.76C251.41,-326.55 251.65,-287.73 251.82,-261.57"/>
<polygon fill="black" stroke="black" points="255.32,-261.72 251.88,-251.7 248.32,-261.67 255.32,-261.72"/>
<text text-anchor="middle" x="265" y="-325.8" font-family="Times New Roman,serif" font-size="14.00">false</text>
</g>
<!-- 4 -->
<g id="node5" class="node">
<title>4</title>
<polygon fill="none" stroke="black" points="206.5,-304 111.5,-304 111.5,-268 206.5,-268 206.5,-304"/>
<text text-anchor="start" x="119.5" y="-289.4" font-family="Times New Roman,serif" font-size="12.00">%8 = arg$0[%4]</text>
<text text-anchor="start" x="119.5" y="-276.4" font-family="Times New Roman,serif" font-size="12.00">if (%8 &lt;= arg$1)</text>
</g>
<!-- 2&#45;&gt;4 -->
<g id="edge4" class="edge">
<title>2&#45;&gt;4</title>
<path fill="none" stroke="black" d="M219.08,-354.59C206.77,-340.74 192.97,-325.21 181.7,-312.54"/>
<polygon fill="black" stroke="black" points="184.62,-310.55 175.36,-305.4 179.39,-315.2 184.62,-310.55"/>
<text text-anchor="middle" x="214" y="-325.8" font-family="Times New Roman,serif" font-size="14.00">true</text>
</g>
<!-- 8 -->
<g id="node9" class="node">
<title>8</title>
<polygon fill="none" stroke="black" points="343,-109 217,-109 217,-73 343,-73 343,-109"/>
<text text-anchor="start" x="225" y="-87.9" font-family="Times New Roman,serif" font-size="12.00">goto JcInstRef(index=2)</text>
</g>
<!-- 3&#45;&gt;8 -->
<g id="edge6" class="edge">
<title>3&#45;&gt;8</title>
<path fill="none" stroke="black" d="M256.11,-213.58C257.39,-207.98 258.79,-201.73 260,-196 265.35,-170.58 270.88,-141.55 274.77,-120.63"/>
<polygon fill="black" stroke="black" points="278.21,-121.29 276.58,-110.82 271.32,-120.02 278.21,-121.29"/>
</g>
<!-- 5 -->
<g id="node6" class="node">
<title>5</title>
<polygon fill="none" stroke="black" points="132,-196 0,-196 0,-160 132,-160 132,-196"/>
<text text-anchor="start" x="8" y="-181.4" font-family="Times New Roman,serif" font-size="12.00">arg$3 = %4 &#45; 1</text>
<text text-anchor="start" x="8" y="-168.4" font-family="Times New Roman,serif" font-size="12.00">goto JcInstRef(index=18)</text>
</g>
<!-- 4&#45;&gt;5 -->
<g id="edge8" class="edge">
<title>4&#45;&gt;5</title>
<path fill="none" stroke="black" d="M138.07,-267.53C132.02,-262.13 125.55,-256.02 120,-250 107.12,-236.03 94.18,-219.14 84.2,-205.34"/>
<polygon fill="black" stroke="black" points="87.33,-203.7 78.68,-197.59 81.63,-207.77 87.33,-203.7"/>
<text text-anchor="middle" x="133" y="-228.3" font-family="Times New Roman,serif" font-size="14.00">false</text>
</g>
<!-- 6 -->
<g id="node7" class="node">
<title>6</title>
<polygon fill="none" stroke="black" points="251.5,-196 150.5,-196 150.5,-160 251.5,-160 251.5,-196"/>
<text text-anchor="start" x="158.5" y="-181.4" font-family="Times New Roman,serif" font-size="12.00">%10 = arg$0[%4]</text>
<text text-anchor="start" x="158.5" y="-168.4" font-family="Times New Roman,serif" font-size="12.00">if (%10 != arg$1)</text>
</g>
<!-- 4&#45;&gt;6 -->
<g id="edge7" class="edge">
<title>4&#45;&gt;6</title>
<path fill="none" stroke="black" d="M153.43,-267.69C149.64,-252.69 146.67,-230.81 155,-214 156.75,-210.48 159.04,-207.21 161.66,-204.21"/>
<polygon fill="black" stroke="black" points="163.88,-206.93 168.69,-197.49 159.04,-201.87 163.88,-206.93"/>
<text text-anchor="middle" x="166" y="-228.3" font-family="Times New Roman,serif" font-size="14.00">true</text>
</g>
<!-- 5&#45;&gt;8 -->
<g id="edge9" class="edge">
<title>5&#45;&gt;8</title>
<path fill="none" stroke="black" d="M94.55,-159.61C112.57,-149.15 136.6,-136.14 159,-127 173.89,-120.92 190.21,-115.45 205.9,-110.74"/>
<polygon fill="black" stroke="black" points="206.58,-114.19 215.2,-108.02 204.62,-107.47 206.58,-114.19"/>
</g>
<!-- 7 -->
<g id="node8" class="node">
<title>7</title>
<polygon fill="none" stroke="black" points="199,-109 67,-109 67,-73 199,-73 199,-109"/>
<text text-anchor="start" x="75" y="-94.4" font-family="Times New Roman,serif" font-size="12.00">%1 = %4</text>
<text text-anchor="start" x="75" y="-81.4" font-family="Times New Roman,serif" font-size="12.00">goto JcInstRef(index=19)</text>
</g>
<!-- 6&#45;&gt;7 -->
<g id="edge11" class="edge">
<title>6&#45;&gt;7</title>
<path fill="none" stroke="black" d="M187.24,-159.8C177.72,-147.9 164.86,-131.83 154.06,-118.32"/>
<polygon fill="black" stroke="black" points="156.9,-116.27 147.92,-110.65 151.43,-120.64 156.9,-116.27"/>
<text text-anchor="middle" x="185" y="-130.8" font-family="Times New Roman,serif" font-size="14.00">false</text>
</g>
<!-- 6&#45;&gt;8 -->
<g id="edge10" class="edge">
<title>6&#45;&gt;8</title>
<path fill="none" stroke="black" d="M215.36,-159.54C223.54,-149.78 234.12,-137.51 244,-127 246.92,-123.9 250.04,-120.7 253.17,-117.57"/>
<polygon fill="black" stroke="black" points="255.62,-120.07 260.29,-110.56 250.71,-115.08 255.62,-120.07"/>
<text text-anchor="middle" x="255" y="-130.8" font-family="Times New Roman,serif" font-size="14.00">true</text>
</g>
<!-- 7&#45;&gt;9 -->
<g id="edge12" class="edge">
<title>7&#45;&gt;9</title>
<path fill="none" stroke="black" d="M162.11,-72.63C177.53,-63.43 196.66,-52.02 213.31,-42.08"/>
<polygon fill="black" stroke="black" points="214.68,-45.34 221.48,-37.21 211.1,-39.33 214.68,-45.34"/>
</g>
<!-- 8&#45;&gt;1 -->
<g id="edge13" class="edge">
<title>8&#45;&gt;1</title>
<path fill="none" stroke="black" d="M298.84,-109.29C314.07,-125.23 333,-150.39 333,-177 333,-392.5 333,-392.5 333,-392.5 333,-417.77 333,-446.5 333,-467.27"/>
<polygon fill="black" stroke="black" points="329.5,-467.27 333,-477.27 336.5,-467.27 329.5,-467.27"/>
</g>
</g>
</svg>
