<?xml version="1.0" encoding="UTF-8" standalone="no"?>
<!DOCTYPE svg PUBLIC "-//W3C//DTD SVG 1.1//EN"
 "http://www.w3.org/Graphics/SVG/1.1/DTD/svg11.dtd">
<!-- Generated by graphviz version 7.0.4 (20221203.1631)
 -->
<!-- Title: jcGraph Pages: 1 -->
<svg width="666pt" height="434pt"
     viewBox="0.00 0.00 666.00 434.00" xmlns="http://www.w3.org/2000/svg">
<g id="graph0" class="graph" transform="scale(1 1) rotate(0) translate(4 430)">
<title>jcGraph</title>
<!-- 0 -->
<g id="node1" class="node">
<title>0</title>
<polygon fill="none" stroke="black" points="301,-426 129,-426 129,-353 301,-353 301,-426"/>
<text text-anchor="start" x="137" y="-412.4" font-family="Times New Roman,serif" font-size="12.00">%0 = new java.io.BufferedReader</text>
<text text-anchor="start" x="137" y="-399.4" font-family="Times New Roman,serif" font-size="12.00">%1 = new java.io.FileReader</text>
<text text-anchor="start" x="137" y="-386.4" font-family="Times New Roman,serif" font-size="12.00">%1.&lt;init&gt;(arg$0)</text>
<text text-anchor="start" x="137" y="-373.4" font-family="Times New Roman,serif" font-size="12.00">%0.&lt;init&gt;(%1)</text>
<text text-anchor="start" x="137" y="-360.4" font-family="Times New Roman,serif" font-size="12.00">goto JcInstRef(index=5)</text>
</g>
<!-- 1 -->
<g id="node2" class="node">
<title>1</title>
<polygon fill="none" stroke="black" points="270.5,-316 159.5,-316 159.5,-280 270.5,-280 270.5,-316"/>
<text text-anchor="start" x="167.5" y="-294.9" font-family="Times New Roman,serif" font-size="12.00">%4 = %0.readLine()</text>
</g>
<!-- 0&#45;&gt;1 -->
<g id="edge1" class="edge">
<title>0&#45;&gt;1</title>
<path fill="none" stroke="black" d="M215,-352.61C215,-344.35 215,-335.66 215,-327.74"/>
<polygon fill="black" stroke="black" points="218.5,-327.98 215,-317.98 211.5,-327.98 218.5,-327.98"/>
</g>
<!-- 2 -->
<g id="node3" class="node">
<title>2</title>
<polygon fill="none" stroke="black" points="204.5,-237.5 121.5,-237.5 121.5,-201.5 204.5,-201.5 204.5,-237.5"/>
<text text-anchor="start" x="129.5" y="-216.4" font-family="Times New Roman,serif" font-size="12.00">if (%4 == null)</text>
</g>
<!-- 1&#45;&gt;2 -->
<g id="edge2" class="edge">
<title>1&#45;&gt;2</title>
<path fill="none" stroke="black" d="M203.2,-279.64C196.68,-270.06 188.45,-257.95 181.14,-247.18"/>
<polygon fill="black" stroke="black" points="184.12,-245.34 175.6,-239.04 178.33,-249.28 184.12,-245.34"/>
</g>
<!-- 3 -->
<g id="node4" class="node">
<title>3</title>
<polygon fill="none" stroke="black" points="332,-145 150,-145 150,-98 332,-98 332,-145"/>
<text text-anchor="start" x="158" y="-131.4" font-family="Times New Roman,serif" font-size="12.00">%6 = %4.substring(0, 2)</text>
<text text-anchor="start" x="158" y="-118.4" font-family="Times New Roman,serif" font-size="12.00">%8 = java.lang.Integer.parseInt(%6)</text>
<text text-anchor="start" x="158" y="-105.4" font-family="Times New Roman,serif" font-size="12.00">if (%8 &lt; 60)</text>
</g>
<!-- 2&#45;&gt;3 -->
<g id="edge4" class="edge">
<title>2&#45;&gt;3</title>
<path fill="none" stroke="black" d="M173.72,-201.17C180.95,-189.93 190.97,-175.16 201,-163 203.61,-159.84 206.42,-156.64 209.3,-153.5"/>
<polygon fill="black" stroke="black" points="211.61,-156.15 215.95,-146.49 206.53,-151.33 211.61,-156.15"/>
<text text-anchor="middle" x="214" y="-166.8" font-family="Times New Roman,serif" font-size="14.00">false</text>
</g>
<!-- 5 -->
<g id="node6" class="node">
<title>5</title>
<polygon fill="none" stroke="black" points="132,-139.5 0,-139.5 0,-103.5 132,-103.5 132,-139.5"/>
<text text-anchor="start" x="8" y="-124.9" font-family="Times New Roman,serif" font-size="12.00">%0.close()</text>
<text text-anchor="start" x="8" y="-111.9" font-family="Times New Roman,serif" font-size="12.00">goto JcInstRef(index=22)</text>
</g>
<!-- 2&#45;&gt;5 -->
<g id="edge3" class="edge">
<title>2&#45;&gt;5</title>
<path fill="none" stroke="black" d="M145.66,-201.34C130.58,-186.41 108.53,-164.59 91.45,-147.69"/>
<polygon fill="black" stroke="black" points="94.16,-145.45 84.59,-140.9 89.24,-150.42 94.16,-145.45"/>
<text text-anchor="middle" x="132" y="-166.8" font-family="Times New Roman,serif" font-size="14.00">true</text>
</g>
<!-- 3&#45;&gt;1 -->
<g id="edge5" class="edge">
<title>3&#45;&gt;1</title>
<path fill="none" stroke="black" d="M237.61,-145.27C232.9,-176.88 224.38,-234.07 219.25,-268.48"/>
<polygon fill="black" stroke="black" points="215.82,-267.73 217.81,-278.13 222.75,-268.76 215.82,-267.73"/>
<text text-anchor="middle" x="241" y="-215.8" font-family="Times New Roman,serif" font-size="14.00">true</text>
</g>
<!-- 4 -->
<g id="node5" class="node">
<title>4</title>
<polygon fill="none" stroke="black" points="353.5,-47 128.5,-47 128.5,0 353.5,0 353.5,-47"/>
<text text-anchor="start" x="136.5" y="-33.4" font-family="Times New Roman,serif" font-size="12.00">%9 = new java.lang.NumberFormatException</text>
<text text-anchor="start" x="136.5" y="-20.4" font-family="Times New Roman,serif" font-size="12.00">%9.&lt;init&gt;()</text>
<text text-anchor="start" x="136.5" y="-7.4" font-family="Times New Roman,serif" font-size="12.00">throw %9</text>
</g>
<!-- 3&#45;&gt;4 -->
<g id="edge6" class="edge">
<title>3&#45;&gt;4</title>
<path fill="none" stroke="black" d="M241,-97.75C241,-86.12 241,-71.72 241,-58.78"/>
<polygon fill="black" stroke="black" points="244.5,-58.93 241,-48.93 237.5,-58.93 244.5,-58.93"/>
<text text-anchor="middle" x="254" y="-68.8" font-family="Times New Roman,serif" font-size="14.00">false</text>
</g>
<!-- 11 -->
<g id="node12" class="node">
<title>11</title>
<polygon fill="none" stroke="black" points="93,-41.5 39,-41.5 39,-5.5 93,-5.5 93,-41.5"/>
<text text-anchor="start" x="47" y="-20.4" font-family="Times New Roman,serif" font-size="12.00">return</text>
</g>
<!-- 5&#45;&gt;11 -->
<g id="edge7" class="edge">
<title>5&#45;&gt;11</title>
<path fill="none" stroke="black" d="M66,-103.34C66,-89.36 66,-69.34 66,-52.97"/>
<polygon fill="black" stroke="black" points="69.5,-53.35 66,-43.35 62.5,-53.35 69.5,-53.35"/>
</g>
<!-- 6 -->
<g id="node7" class="node">
<title>6</title>
<polygon fill="none" stroke="black" points="489,-407.5 319,-407.5 319,-371.5 489,-371.5 489,-407.5"/>
<text text-anchor="start" x="327" y="-386.4" font-family="Times New Roman,serif" font-size="12.00">catch (%13: java.lang.Throwable)</text>
</g>
<!-- 7 -->
<g id="node8" class="node">
<title>7</title>
<polygon fill="none" stroke="black" points="437,-316 371,-316 371,-280 437,-280 437,-316"/>
<text text-anchor="start" x="379" y="-294.9" font-family="Times New Roman,serif" font-size="12.00">%0.close()</text>
</g>
<!-- 6&#45;&gt;7 -->
<g id="edge8" class="edge">
<title>6&#45;&gt;7</title>
<path fill="none" stroke="black" d="M404,-371.24C404,-358.86 404,-341.9 404,-327.52"/>
<polygon fill="black" stroke="black" points="407.5,-327.72 404,-317.72 400.5,-327.72 407.5,-327.72"/>
</g>
<!-- 8 -->
<g id="node9" class="node">
<title>8</title>
<polygon fill="none" stroke="black" points="470,-237.5 338,-237.5 338,-201.5 470,-201.5 470,-237.5"/>
<text text-anchor="start" x="346" y="-216.4" font-family="Times New Roman,serif" font-size="12.00">goto JcInstRef(index=21)</text>
</g>
<!-- 7&#45;&gt;8 -->
<g id="edge9" class="edge">
<title>7&#45;&gt;8</title>
<path fill="none" stroke="black" d="M404,-279.64C404,-270.64 404,-259.42 404,-249.17"/>
<polygon fill="black" stroke="black" points="407.5,-249.3 404,-239.3 400.5,-249.3 407.5,-249.3"/>
</g>
<!-- 10 -->
<g id="node11" class="node">
<title>10</title>
<polygon fill="none" stroke="black" points="559,-139.5 491,-139.5 491,-103.5 559,-103.5 559,-139.5"/>
<text text-anchor="start" x="499" y="-118.4" font-family="Times New Roman,serif" font-size="12.00">throw %13</text>
</g>
<!-- 8&#45;&gt;10 -->
<g id="edge10" class="edge">
<title>8&#45;&gt;10</title>
<path fill="none" stroke="black" d="M425.91,-201.12C445.01,-185.96 472.93,-163.82 494.26,-146.89"/>
<polygon fill="black" stroke="black" points="496.41,-149.65 502.07,-140.7 492.06,-144.17 496.41,-149.65"/>
</g>
<!-- 9 -->
<g id="node10" class="node">
<title>9</title>
<polygon fill="none" stroke="black" points="658,-243 488,-243 488,-196 658,-196 658,-243"/>
<text text-anchor="start" x="496" y="-229.4" font-family="Times New Roman,serif" font-size="12.00">catch (%16: java.lang.Throwable)</text>
<text text-anchor="start" x="496" y="-216.4" font-family="Times New Roman,serif" font-size="12.00">%13.addSuppressed(%16)</text>
<text text-anchor="start" x="496" y="-203.4" font-family="Times New Roman,serif" font-size="12.00">goto JcInstRef(index=21)</text>
</g>
<!-- 9&#45;&gt;10 -->
<g id="edge11" class="edge">
<title>9&#45;&gt;10</title>
<path fill="none" stroke="black" d="M561.62,-195.75C554.75,-182.01 545.95,-164.41 538.7,-149.9"/>
<polygon fill="black" stroke="black" points="542.02,-148.72 534.42,-141.34 535.76,-151.85 542.02,-148.72"/>
</g>
</g>
</svg>
