<?xml version="1.0" encoding="UTF-8" standalone="no"?>
<!DOCTYPE svg PUBLIC "-//W3C//DTD SVG 1.1//EN"
 "http://www.w3.org/Graphics/SVG/1.1/DTD/svg11.dtd">
<!-- Generated by graphviz version 7.0.4 (20221203.1631)
 -->
<!-- Title: jcGraph Pages: 1 -->
<svg width="290pt" height="437pt"
     viewBox="0.00 0.00 290.00 437.00" xmlns="http://www.w3.org/2000/svg">
<g id="graph0" class="graph" transform="scale(1 1) rotate(0) translate(4 433)">
<title>jcGraph</title>
<!-- 0 -->
<g id="node1" class="node">
<title>0</title>
<polygon fill="none" stroke="black" points="193,-429 89,-429 89,-393 193,-393 193,-429"/>
<text text-anchor="start" x="97" y="-414.4" font-family="Times New Roman,serif" font-size="12.00">%0 = 0</text>
<text text-anchor="start" x="97" y="-401.4" font-family="Times New Roman,serif" font-size="12.00">if (arg$0 &lt;= arg$1)</text>
</g>
<!-- 1 -->
<g id="node2" class="node">
<title>1</title>
<polygon fill="none" stroke="black" points="132,-342 6,-342 6,-306 132,-306 132,-342"/>
<text text-anchor="start" x="14" y="-327.4" font-family="Times New Roman,serif" font-size="12.00">%0 = arg$0</text>
<text text-anchor="start" x="14" y="-314.4" font-family="Times New Roman,serif" font-size="12.00">goto JcInstRef(index=6)</text>
</g>
<!-- 0&#45;&gt;1 -->
<g id="edge2" class="edge">
<title>0&#45;&gt;1</title>
<path fill="none" stroke="black" d="M126.43,-392.8C116.25,-380.78 102.48,-364.52 90.97,-350.94"/>
<polygon fill="black" stroke="black" points="93.91,-348.99 84.77,-343.62 88.57,-353.51 93.91,-348.99"/>
<text text-anchor="middle" x="123" y="-363.8" font-family="Times New Roman,serif" font-size="14.00">false</text>
</g>
<!-- 2 -->
<g id="node3" class="node">
<title>2</title>
<polygon fill="none" stroke="black" points="276,-342 150,-342 150,-306 276,-306 276,-342"/>
<text text-anchor="start" x="158" y="-327.4" font-family="Times New Roman,serif" font-size="12.00">%0 = arg$1</text>
<text text-anchor="start" x="158" y="-314.4" font-family="Times New Roman,serif" font-size="12.00">goto JcInstRef(index=6)</text>
</g>
<!-- 0&#45;&gt;2 -->
<g id="edge1" class="edge">
<title>0&#45;&gt;2</title>
<path fill="none" stroke="black" d="M155.57,-392.8C165.75,-380.78 179.52,-364.52 191.03,-350.94"/>
<polygon fill="black" stroke="black" points="193.43,-353.51 197.23,-343.62 188.09,-348.99 193.43,-353.51"/>
<text text-anchor="middle" x="192" y="-363.8" font-family="Times New Roman,serif" font-size="14.00">true</text>
</g>
<!-- 3 -->
<g id="node4" class="node">
<title>3</title>
<polygon fill="none" stroke="black" points="167,-269 113,-269 113,-233 167,-233 167,-269"/>
<text text-anchor="start" x="121" y="-247.9" font-family="Times New Roman,serif" font-size="12.00">%2 = 0</text>
</g>
<!-- 1&#45;&gt;3 -->
<g id="edge3" class="edge">
<title>1&#45;&gt;3</title>
<path fill="none" stroke="black" d="M86.19,-305.81C94.82,-297.18 105.44,-286.56 114.97,-277.03"/>
<polygon fill="black" stroke="black" points="117.3,-279.65 121.9,-270.1 112.35,-274.7 117.3,-279.65"/>
</g>
<!-- 2&#45;&gt;3 -->
<g id="edge4" class="edge">
<title>2&#45;&gt;3</title>
<path fill="none" stroke="black" d="M195.33,-305.81C186.52,-297.24 175.69,-286.71 165.96,-277.24"/>
<polygon fill="black" stroke="black" points="168.46,-274.79 158.85,-270.33 163.57,-279.81 168.46,-274.79"/>
</g>
<!-- 4 -->
<g id="node5" class="node">
<title>4</title>
<polygon fill="none" stroke="black" points="183,-196 97,-196 97,-160 183,-160 183,-196"/>
<text text-anchor="start" x="105" y="-174.9" font-family="Times New Roman,serif" font-size="12.00">if (%0 &lt;= 100)</text>
</g>
<!-- 3&#45;&gt;4 -->
<g id="edge5" class="edge">
<title>3&#45;&gt;4</title>
<path fill="none" stroke="black" d="M140,-232.81C140,-225.23 140,-216.1 140,-207.54"/>
<polygon fill="black" stroke="black" points="143.5,-207.54 140,-197.54 136.5,-207.54 143.5,-207.54"/>
</g>
<!-- 5 -->
<g id="node6" class="node">
<title>5</title>
<polygon fill="none" stroke="black" points="132,-109 0,-109 0,-73 132,-73 132,-109"/>
<text text-anchor="start" x="8" y="-94.4" font-family="Times New Roman,serif" font-size="12.00">%2 = 100 &#45; %0</text>
<text text-anchor="start" x="8" y="-81.4" font-family="Times New Roman,serif" font-size="12.00">goto JcInstRef(index=12)</text>
</g>
<!-- 4&#45;&gt;5 -->
<g id="edge7" class="edge">
<title>4&#45;&gt;5</title>
<path fill="none" stroke="black" d="M125.02,-159.8C114.56,-147.78 100.41,-131.52 88.58,-117.94"/>
<polygon fill="black" stroke="black" points="91.41,-115.85 82.2,-110.61 86.13,-120.45 91.41,-115.85"/>
<text text-anchor="middle" x="121" y="-130.8" font-family="Times New Roman,serif" font-size="14.00">false</text>
</g>
<!-- 6 -->
<g id="node7" class="node">
<title>6</title>
<polygon fill="none" stroke="black" points="282,-109 150,-109 150,-73 282,-73 282,-109"/>
<text text-anchor="start" x="158" y="-94.4" font-family="Times New Roman,serif" font-size="12.00">%2 = &#45;%0</text>
<text text-anchor="start" x="158" y="-81.4" font-family="Times New Roman,serif" font-size="12.00">goto JcInstRef(index=12)</text>
</g>
<!-- 4&#45;&gt;6 -->
<g id="edge6" class="edge">
<title>4&#45;&gt;6</title>
<path fill="none" stroke="black" d="M155.38,-159.8C166.12,-147.78 180.66,-131.52 192.81,-117.94"/>
<polygon fill="black" stroke="black" points="195.32,-120.38 199.37,-110.6 190.1,-115.72 195.32,-120.38"/>
<text text-anchor="middle" x="193" y="-130.8" font-family="Times New Roman,serif" font-size="14.00">true</text>
</g>
<!-- 7 -->
<g id="node8" class="node">
<title>7</title>
<polygon fill="none" stroke="black" points="171,-36 109,-36 109,0 171,0 171,-36"/>
<text text-anchor="start" x="117" y="-14.9" font-family="Times New Roman,serif" font-size="12.00">return %2</text>
</g>
<!-- 5&#45;&gt;7 -->
<g id="edge8" class="edge">
<title>5&#45;&gt;7</title>
<path fill="none" stroke="black" d="M83.91,-72.81C92.85,-64.24 103.82,-53.71 113.69,-44.24"/>
<polygon fill="black" stroke="black" points="116.11,-46.77 120.9,-37.32 111.26,-41.72 116.11,-46.77"/>
</g>
<!-- 6&#45;&gt;7 -->
<g id="edge9" class="edge">
<title>6&#45;&gt;7</title>
<path fill="none" stroke="black" d="M197.6,-72.81C188.34,-64.16 176.93,-53.5 166.72,-43.96"/>
<polygon fill="black" stroke="black" points="169.29,-41.58 159.6,-37.31 164.52,-46.69 169.29,-41.58"/>
</g>
</g>
</svg>
