<?xml version="1.0" encoding="UTF-8" standalone="no"?>
<!DOCTYPE svg PUBLIC "-//W3C//DTD SVG 1.1//EN"
 "http://www.w3.org/Graphics/SVG/1.1/DTD/svg11.dtd">
<!-- Generated by graphviz version 7.0.4 (20221203.1631)
 -->
<!-- Title: jcGraph Pages: 1 -->
<svg width="770pt" height="948pt"
     viewBox="0.00 0.00 770.00 948.00" xmlns="http://www.w3.org/2000/svg">
<g id="graph0" class="graph" transform="scale(1 1) rotate(0) translate(4 944)">
<title>jcGraph</title>
<!-- 0 -->
<g id="node1" class="node">
<title>0</title>
<polygon fill="none" stroke="black" points="386,-940 214,-940 214,-904 386,-904 386,-940"/>
<text text-anchor="middle" x="300" y="-918.9" font-family="Times New Roman,serif" font-size="12.00">%0 = new java.io.BufferedReader</text>
</g>
<!-- 1 -->
<g id="node2" class="node">
<title>1</title>
<polygon fill="none" stroke="black" points="374.5,-867 225.5,-867 225.5,-831 374.5,-831 374.5,-867"/>
<text text-anchor="middle" x="300" y="-845.9" font-family="Times New Roman,serif" font-size="12.00">%1 = new java.io.FileReader</text>
</g>
<!-- 0&#45;&gt;1 -->
<g id="edge1" class="edge">
<title>0&#45;&gt;1</title>
<path fill="none" stroke="black" d="M300,-903.81C300,-896.23 300,-887.1 300,-878.54"/>
<polygon fill="black" stroke="black" points="303.5,-878.54 300,-868.54 296.5,-878.54 303.5,-878.54"/>
</g>
<!-- 2 -->
<g id="node3" class="node">
<title>2</title>
<polygon fill="none" stroke="black" points="347.5,-794 252.5,-794 252.5,-758 347.5,-758 347.5,-794"/>
<text text-anchor="middle" x="300" y="-772.9" font-family="Times New Roman,serif" font-size="12.00">%1.&lt;init&gt;(arg$0)</text>
</g>
<!-- 1&#45;&gt;2 -->
<g id="edge2" class="edge">
<title>1&#45;&gt;2</title>
<path fill="none" stroke="black" d="M300,-830.81C300,-823.23 300,-814.1 300,-805.54"/>
<polygon fill="black" stroke="black" points="303.5,-805.54 300,-795.54 296.5,-805.54 303.5,-805.54"/>
</g>
<!-- 3 -->
<g id="node4" class="node">
<title>3</title>
<polygon fill="none" stroke="black" points="342.5,-721 257.5,-721 257.5,-685 342.5,-685 342.5,-721"/>
<text text-anchor="middle" x="300" y="-699.9" font-family="Times New Roman,serif" font-size="12.00">%0.&lt;init&gt;(%1)</text>
</g>
<!-- 2&#45;&gt;3 -->
<g id="edge3" class="edge">
<title>2&#45;&gt;3</title>
<path fill="none" stroke="black" d="M300,-757.81C300,-750.23 300,-741.1 300,-732.54"/>
<polygon fill="black" stroke="black" points="303.5,-732.54 300,-722.54 296.5,-732.54 303.5,-732.54"/>
</g>
<!-- 4 -->
<g id="node5" class="node">
<title>4</title>
<polygon fill="none" stroke="black" points="363,-648 237,-648 237,-612 363,-612 363,-648"/>
<text text-anchor="middle" x="300" y="-626.9" font-family="Times New Roman,serif" font-size="12.00">goto JcInstRef(index=5)</text>
</g>
<!-- 3&#45;&gt;4 -->
<g id="edge4" class="edge">
<title>3&#45;&gt;4</title>
<path fill="none" stroke="black" d="M300,-684.81C300,-677.23 300,-668.1 300,-659.54"/>
<polygon fill="black" stroke="black" points="303.5,-659.54 300,-649.54 296.5,-659.54 303.5,-659.54"/>
</g>
<!-- 5 -->
<g id="node6" class="node">
<title>5</title>
<polygon fill="none" stroke="black" points="355.5,-575 244.5,-575 244.5,-539 355.5,-539 355.5,-575"/>
<text text-anchor="middle" x="300" y="-553.9" font-family="Times New Roman,serif" font-size="12.00">%4 = %0.readLine()</text>
</g>
<!-- 4&#45;&gt;5 -->
<g id="edge5" class="edge">
<title>4&#45;&gt;5</title>
<path fill="none" stroke="black" d="M300,-611.81C300,-604.23 300,-595.1 300,-586.54"/>
<polygon fill="black" stroke="black" points="303.5,-586.54 300,-576.54 296.5,-586.54 303.5,-586.54"/>
</g>
<!-- 6 -->
<g id="node7" class="node">
<title>6</title>
<polygon fill="none" stroke="black" points="282.5,-502 199.5,-502 199.5,-466 282.5,-466 282.5,-502"/>
<text text-anchor="middle" x="241" y="-480.9" font-family="Times New Roman,serif" font-size="12.00">if (%4 == null)</text>
</g>
<!-- 5&#45;&gt;6 -->
<g id="edge6" class="edge">
<title>5&#45;&gt;6</title>
<path fill="none" stroke="black" d="M285.72,-538.81C278.69,-530.35 270.07,-519.98 262.28,-510.61"/>
<polygon fill="black" stroke="black" points="265.2,-508.65 256.12,-503.19 259.82,-513.12 265.2,-508.65"/>
</g>
<!-- 7 -->
<g id="node8" class="node">
<title>7</title>
<polygon fill="none" stroke="black" points="305.5,-415 176.5,-415 176.5,-379 305.5,-379 305.5,-415"/>
<text text-anchor="middle" x="241" y="-393.9" font-family="Times New Roman,serif" font-size="12.00">%6 = %4.substring(0, 2)</text>
</g>
<!-- 6&#45;&gt;7 -->
<g id="edge8" class="edge">
<title>6&#45;&gt;7</title>
<path fill="none" stroke="black" d="M241,-465.8C241,-454.58 241,-439.67 241,-426.69"/>
<polygon fill="black" stroke="black" points="244.5,-426.98 241,-416.98 237.5,-426.98 244.5,-426.98"/>
<text text-anchor="middle" x="254" y="-436.8" font-family="Times New Roman,serif" font-size="14.00">false</text>
</g>
<!-- 13 -->
<g id="node14" class="node">
<title>13</title>
<polygon fill="none" stroke="black" points="143,-415 77,-415 77,-379 143,-379 143,-415"/>
<text text-anchor="middle" x="110" y="-393.9" font-family="Times New Roman,serif" font-size="12.00">%0.close()</text>
</g>
<!-- 6&#45;&gt;13 -->
<g id="edge7" class="edge">
<title>6&#45;&gt;13</title>
<path fill="none" stroke="black" d="M214.17,-465.59C194.57,-452.87 167.77,-435.48 146.26,-421.52"/>
<polygon fill="black" stroke="black" points="148.35,-418.71 138.06,-416.21 144.54,-424.59 148.35,-418.71"/>
<text text-anchor="middle" x="195" y="-436.8" font-family="Times New Roman,serif" font-size="14.00">true</text>
</g>
<!-- 8 -->
<g id="node9" class="node">
<title>8</title>
<polygon fill="none" stroke="black" points="332,-342 150,-342 150,-306 332,-306 332,-342"/>
<text text-anchor="middle" x="241" y="-320.9" font-family="Times New Roman,serif" font-size="12.00">%8 = java.lang.Integer.parseInt(%6)</text>
</g>
<!-- 7&#45;&gt;8 -->
<g id="edge9" class="edge">
<title>7&#45;&gt;8</title>
<path fill="none" stroke="black" d="M241,-378.81C241,-371.23 241,-362.1 241,-353.54"/>
<polygon fill="black" stroke="black" points="244.5,-353.54 241,-343.54 237.5,-353.54 244.5,-353.54"/>
</g>
<!-- 9 -->
<g id="node10" class="node">
<title>9</title>
<polygon fill="none" stroke="black" points="360.5,-269 287.5,-269 287.5,-233 360.5,-233 360.5,-269"/>
<text text-anchor="middle" x="324" y="-247.9" font-family="Times New Roman,serif" font-size="12.00">if (%8 &lt; 60)</text>
</g>
<!-- 8&#45;&gt;9 -->
<g id="edge10" class="edge">
<title>8&#45;&gt;9</title>
<path fill="none" stroke="black" d="M261.09,-305.81C271.31,-297.07 283.92,-286.28 295.16,-276.67"/>
<polygon fill="black" stroke="black" points="297.33,-279.42 302.66,-270.26 292.78,-274.1 297.33,-279.42"/>
</g>
<!-- 9&#45;&gt;5 -->
<g id="edge11" class="edge">
<title>9&#45;&gt;5</title>
<path fill="none" stroke="black" d="M338.64,-269.45C348.61,-283.12 360,-303.1 360,-323 360,-485 360,-485 360,-485 360,-503.14 348.44,-519.03 335.46,-531.16"/>
<polygon fill="black" stroke="black" points="333.29,-528.41 327.99,-537.58 337.85,-533.72 333.29,-528.41"/>
<text text-anchor="middle" x="371" y="-393.3" font-family="Times New Roman,serif" font-size="14.00">true</text>
</g>
<!-- 10 -->
<g id="node11" class="node">
<title>10</title>
<polygon fill="none" stroke="black" points="436.5,-182 211.5,-182 211.5,-146 436.5,-146 436.5,-182"/>
<text text-anchor="middle" x="324" y="-160.9" font-family="Times New Roman,serif" font-size="12.00">%9 = new java.lang.NumberFormatException</text>
</g>
<!-- 9&#45;&gt;10 -->
<g id="edge12" class="edge">
<title>9&#45;&gt;10</title>
<path fill="none" stroke="black" d="M324,-232.8C324,-221.58 324,-206.67 324,-193.69"/>
<polygon fill="black" stroke="black" points="327.5,-193.98 324,-183.98 320.5,-193.98 327.5,-193.98"/>
<text text-anchor="middle" x="337" y="-203.8" font-family="Times New Roman,serif" font-size="14.00">false</text>
</g>
<!-- 11 -->
<g id="node12" class="node">
<title>11</title>
<polygon fill="none" stroke="black" points="358.5,-109 289.5,-109 289.5,-73 358.5,-73 358.5,-109"/>
<text text-anchor="middle" x="324" y="-87.9" font-family="Times New Roman,serif" font-size="12.00">%9.&lt;init&gt;()</text>
</g>
<!-- 10&#45;&gt;11 -->
<g id="edge13" class="edge">
<title>10&#45;&gt;11</title>
<path fill="none" stroke="black" d="M324,-145.81C324,-138.23 324,-129.1 324,-120.54"/>
<polygon fill="black" stroke="black" points="327.5,-120.54 324,-110.54 320.5,-120.54 327.5,-120.54"/>
</g>
<!-- 12 -->
<g id="node13" class="node">
<title>12</title>
<polygon fill="none" stroke="black" points="355,-36 293,-36 293,0 355,0 355,-36"/>
<text text-anchor="middle" x="324" y="-14.9" font-family="Times New Roman,serif" font-size="12.00">throw %9</text>
</g>
<!-- 11&#45;&gt;12 -->
<g id="edge14" class="edge">
<title>11&#45;&gt;12</title>
<path fill="none" stroke="black" d="M324,-72.81C324,-65.23 324,-56.1 324,-47.54"/>
<polygon fill="black" stroke="black" points="327.5,-47.54 324,-37.54 320.5,-47.54 327.5,-47.54"/>
</g>
<!-- 14 -->
<g id="node15" class="node">
<title>14</title>
<polygon fill="none" stroke="black" points="132,-342 0,-342 0,-306 132,-306 132,-342"/>
<text text-anchor="middle" x="66" y="-320.9" font-family="Times New Roman,serif" font-size="12.00">goto JcInstRef(index=22)</text>
</g>
<!-- 13&#45;&gt;14 -->
<g id="edge15" class="edge">
<title>13&#45;&gt;14</title>
<path fill="none" stroke="black" d="M99.35,-378.81C94.32,-370.7 88.21,-360.84 82.59,-351.78"/>
<polygon fill="black" stroke="black" points="85.59,-349.97 77.35,-343.32 79.64,-353.66 85.59,-349.97"/>
</g>
<!-- 22 -->
<g id="node23" class="node">
<title>22</title>
<polygon fill="none" stroke="black" points="93,-269 39,-269 39,-233 93,-233 93,-269"/>
<text text-anchor="middle" x="66" y="-247.9" font-family="Times New Roman,serif" font-size="12.00">return</text>
</g>
<!-- 14&#45;&gt;22 -->
<g id="edge16" class="edge">
<title>14&#45;&gt;22</title>
<path fill="none" stroke="black" d="M66,-305.81C66,-298.23 66,-289.1 66,-280.54"/>
<polygon fill="black" stroke="black" points="69.5,-280.54 66,-270.54 62.5,-280.54 69.5,-280.54"/>
</g>
<!-- 15 -->
<g id="node16" class="node">
<title>15</title>
<polygon fill="none" stroke="black" points="574,-940 404,-940 404,-904 574,-904 574,-940"/>
<text text-anchor="middle" x="489" y="-918.9" font-family="Times New Roman,serif" font-size="12.00">catch (%13: java.lang.Throwable)</text>
</g>
<!-- 16 -->
<g id="node17" class="node">
<title>16</title>
<polygon fill="none" stroke="black" points="523,-867 457,-867 457,-831 523,-831 523,-867"/>
<text text-anchor="middle" x="490" y="-845.9" font-family="Times New Roman,serif" font-size="12.00">%0.close()</text>
</g>
<!-- 15&#45;&gt;16 -->
<g id="edge17" class="edge">
<title>15&#45;&gt;16</title>
<path fill="none" stroke="black" d="M489.24,-903.81C489.35,-896.23 489.48,-887.1 489.6,-878.54"/>
<polygon fill="black" stroke="black" points="493.1,-878.59 489.74,-868.54 486.1,-878.49 493.1,-878.59"/>
</g>
<!-- 17 -->
<g id="node18" class="node">
<title>17</title>
<polygon fill="none" stroke="black" points="577,-794 445,-794 445,-758 577,-758 577,-794"/>
<text text-anchor="middle" x="511" y="-772.9" font-family="Times New Roman,serif" font-size="12.00">goto JcInstRef(index=21)</text>
</g>
<!-- 16&#45;&gt;17 -->
<g id="edge18" class="edge">
<title>16&#45;&gt;17</title>
<path fill="none" stroke="black" d="M495.08,-830.81C497.38,-823.05 500.15,-813.68 502.73,-804.95"/>
<polygon fill="black" stroke="black" points="506.05,-806.06 505.53,-795.48 499.34,-804.08 506.05,-806.06"/>
</g>
<!-- 21 -->
<g id="node22" class="node">
<title>21</title>
<polygon fill="none" stroke="black" points="622,-721 554,-721 554,-685 622,-685 622,-721"/>
<text text-anchor="middle" x="588" y="-699.9" font-family="Times New Roman,serif" font-size="12.00">throw %13</text>
</g>
<!-- 17&#45;&gt;21 -->
<g id="edge19" class="edge">
<title>17&#45;&gt;21</title>
<path fill="none" stroke="black" d="M529.64,-757.81C539.03,-749.16 550.59,-738.5 560.93,-728.96"/>
<polygon fill="black" stroke="black" points="563.17,-731.65 568.15,-722.3 558.43,-726.51 563.17,-731.65"/>
</g>
<!-- 18 -->
<g id="node19" class="node">
<title>18</title>
<polygon fill="none" stroke="black" points="762,-940 592,-940 592,-904 762,-904 762,-940"/>
<text text-anchor="middle" x="677" y="-918.9" font-family="Times New Roman,serif" font-size="12.00">catch (%16: java.lang.Throwable)</text>
</g>
<!-- 19 -->
<g id="node20" class="node">
<title>19</title>
<polygon fill="none" stroke="black" points="746.5,-867 605.5,-867 605.5,-831 746.5,-831 746.5,-867"/>
<text text-anchor="middle" x="676" y="-845.9" font-family="Times New Roman,serif" font-size="12.00">%13.addSuppressed(%16)</text>
</g>
<!-- 18&#45;&gt;19 -->
<g id="edge20" class="edge">
<title>18&#45;&gt;19</title>
<path fill="none" stroke="black" d="M676.76,-903.81C676.65,-896.23 676.52,-887.1 676.4,-878.54"/>
<polygon fill="black" stroke="black" points="679.9,-878.49 676.26,-868.54 672.9,-878.59 679.9,-878.49"/>
</g>
<!-- 20 -->
<g id="node21" class="node">
<title>20</title>
<polygon fill="none" stroke="black" points="732,-794 600,-794 600,-758 732,-758 732,-794"/>
<text text-anchor="middle" x="666" y="-772.9" font-family="Times New Roman,serif" font-size="12.00">goto JcInstRef(index=21)</text>
</g>
<!-- 19&#45;&gt;20 -->
<g id="edge21" class="edge">
<title>19&#45;&gt;20</title>
<path fill="none" stroke="black" d="M673.58,-830.81C672.5,-823.14 671.2,-813.89 669.98,-805.24"/>
<polygon fill="black" stroke="black" points="673.47,-804.94 668.61,-795.53 666.54,-805.92 673.47,-804.94"/>
</g>
<!-- 20&#45;&gt;21 -->
<g id="edge22" class="edge">
<title>20&#45;&gt;21</title>
<path fill="none" stroke="black" d="M647.12,-757.81C637.61,-749.16 625.9,-738.5 615.42,-728.96"/>
<polygon fill="black" stroke="black" points="617.85,-726.44 608.1,-722.29 613.14,-731.61 617.85,-726.44"/>
</g>
</g>
</svg>
