<?xml version="1.0" encoding="UTF-8" standalone="no"?>
<!DOCTYPE svg PUBLIC "-//W3C//DTD SVG 1.1//EN"
 "http://www.w3.org/Graphics/SVG/1.1/DTD/svg11.dtd">
<!-- Generated by graphviz version 7.0.4 (20221203.1631)
 -->
<!-- Title: jcGraph Pages: 1 -->
<svg width="397pt" height="1143pt"
     viewBox="0.00 0.00 397.00 1143.00" xmlns="http://www.w3.org/2000/svg">
<g id="graph0" class="graph" transform="scale(1 1) rotate(0) translate(4 1139)">
<title>jcGraph</title>
<!-- 0 -->
<g id="node1" class="node">
<title>0</title>
<polygon fill="none" stroke="black" points="373.5,-1135 268.5,-1135 268.5,-1099 373.5,-1099 373.5,-1135"/>
<text text-anchor="middle" x="321" y="-1113.9" font-family="Times New Roman,serif" font-size="12.00">%1 = 2147483647</text>
</g>
<!-- 1 -->
<g id="node2" class="node">
<title>1</title>
<polygon fill="none" stroke="black" points="384,-1062 258,-1062 258,-1026 384,-1026 384,-1062"/>
<text text-anchor="middle" x="321" y="-1040.9" font-family="Times New Roman,serif" font-size="12.00">goto JcInstRef(index=2)</text>
</g>
<!-- 0&#45;&gt;1 -->
<g id="edge1" class="edge">
<title>0&#45;&gt;1</title>
<path fill="none" stroke="black" d="M321,-1098.81C321,-1091.23 321,-1082.1 321,-1073.54"/>
<polygon fill="black" stroke="black" points="324.5,-1073.54 321,-1063.54 317.5,-1073.54 324.5,-1073.54"/>
</g>
<!-- 2 -->
<g id="node3" class="node">
<title>2</title>
<polygon fill="none" stroke="black" points="370,-989 272,-989 272,-953 370,-953 370,-989"/>
<text text-anchor="middle" x="321" y="-967.9" font-family="Times New Roman,serif" font-size="12.00">if (arg$2 &gt; arg$3)</text>
</g>
<!-- 1&#45;&gt;2 -->
<g id="edge2" class="edge">
<title>1&#45;&gt;2</title>
<path fill="none" stroke="black" d="M321,-1025.81C321,-1018.23 321,-1009.1 321,-1000.54"/>
<polygon fill="black" stroke="black" points="324.5,-1000.54 321,-990.54 317.5,-1000.54 324.5,-1000.54"/>
</g>
<!-- 3 -->
<g id="node4" class="node">
<title>3</title>
<polygon fill="none" stroke="black" points="293,-902 185,-902 185,-866 293,-866 293,-902"/>
<text text-anchor="middle" x="239" y="-880.9" font-family="Times New Roman,serif" font-size="12.00">%2 = arg$3 &#45; arg$2</text>
</g>
<!-- 2&#45;&gt;3 -->
<g id="edge4" class="edge">
<title>2&#45;&gt;3</title>
<path fill="none" stroke="black" d="M300.1,-952.78C293.78,-947.29 286.94,-941.06 281,-935 273.7,-927.55 266.22,-919 259.64,-911.1"/>
<polygon fill="black" stroke="black" points="262.38,-908.92 253.34,-903.4 256.96,-913.36 262.38,-908.92"/>
<text text-anchor="middle" x="294" y="-923.8" font-family="Times New Roman,serif" font-size="14.00">false</text>
</g>
<!-- 19 -->
<g id="node20" class="node">
<title>19</title>
<polygon fill="none" stroke="black" points="337,-36 275,-36 275,0 337,0 337,-36"/>
<text text-anchor="middle" x="306" y="-14.9" font-family="Times New Roman,serif" font-size="12.00">return %1</text>
</g>
<!-- 2&#45;&gt;19 -->
<g id="edge3" class="edge">
<title>2&#45;&gt;19</title>
<path fill="none" stroke="black" d="M337.09,-952.58C350.35,-936.35 367,-910.84 367,-885 367,-885 367,-885 367,-90 367,-71.74 355.24,-55.83 342.05,-43.72"/>
<polygon fill="black" stroke="black" points="344.35,-41.08 334.45,-37.31 339.83,-46.43 344.35,-41.08"/>
<text text-anchor="middle" x="378" y="-501.3" font-family="Times New Roman,serif" font-size="14.00">true</text>
</g>
<!-- 4 -->
<g id="node5" class="node">
<title>4</title>
<polygon fill="none" stroke="black" points="277,-829 201,-829 201,-793 277,-793 277,-829"/>
<text text-anchor="middle" x="239" y="-807.9" font-family="Times New Roman,serif" font-size="12.00">%3 = %2 / 2</text>
</g>
<!-- 3&#45;&gt;4 -->
<g id="edge5" class="edge">
<title>3&#45;&gt;4</title>
<path fill="none" stroke="black" d="M239,-865.81C239,-858.23 239,-849.1 239,-840.54"/>
<polygon fill="black" stroke="black" points="242.5,-840.54 239,-830.54 235.5,-840.54 242.5,-840.54"/>
</g>
<!-- 5 -->
<g id="node6" class="node">
<title>5</title>
<polygon fill="none" stroke="black" points="289,-756 189,-756 189,-720 289,-720 289,-756"/>
<text text-anchor="middle" x="239" y="-734.9" font-family="Times New Roman,serif" font-size="12.00">%4 = arg$2 + %3</text>
</g>
<!-- 4&#45;&gt;5 -->
<g id="edge6" class="edge">
<title>4&#45;&gt;5</title>
<path fill="none" stroke="black" d="M239,-792.81C239,-785.23 239,-776.1 239,-767.54"/>
<polygon fill="black" stroke="black" points="242.5,-767.54 239,-757.54 235.5,-767.54 242.5,-767.54"/>
</g>
<!-- 6 -->
<g id="node7" class="node">
<title>6</title>
<polygon fill="none" stroke="black" points="286.5,-683 191.5,-683 191.5,-647 286.5,-647 286.5,-683"/>
<text text-anchor="middle" x="239" y="-661.9" font-family="Times New Roman,serif" font-size="12.00">%6 = arg$0[%4]</text>
</g>
<!-- 5&#45;&gt;6 -->
<g id="edge7" class="edge">
<title>5&#45;&gt;6</title>
<path fill="none" stroke="black" d="M239,-719.81C239,-712.23 239,-703.1 239,-694.54"/>
<polygon fill="black" stroke="black" points="242.5,-694.54 239,-684.54 235.5,-694.54 242.5,-694.54"/>
</g>
<!-- 7 -->
<g id="node8" class="node">
<title>7</title>
<polygon fill="none" stroke="black" points="286,-610 192,-610 192,-574 286,-574 286,-610"/>
<text text-anchor="middle" x="239" y="-588.9" font-family="Times New Roman,serif" font-size="12.00">if (%6 &gt;= arg$1)</text>
</g>
<!-- 6&#45;&gt;7 -->
<g id="edge8" class="edge">
<title>6&#45;&gt;7</title>
<path fill="none" stroke="black" d="M239,-646.81C239,-639.23 239,-630.1 239,-621.54"/>
<polygon fill="black" stroke="black" points="242.5,-621.54 239,-611.54 235.5,-621.54 242.5,-621.54"/>
</g>
<!-- 8 -->
<g id="node9" class="node">
<title>8</title>
<polygon fill="none" stroke="black" points="285,-523 195,-523 195,-487 285,-487 285,-523"/>
<text text-anchor="middle" x="240" y="-501.9" font-family="Times New Roman,serif" font-size="12.00">arg$2 = %4 + 1</text>
</g>
<!-- 7&#45;&gt;8 -->
<g id="edge10" class="edge">
<title>7&#45;&gt;8</title>
<path fill="none" stroke="black" d="M239.2,-573.8C239.33,-562.58 239.51,-547.67 239.66,-534.69"/>
<polygon fill="black" stroke="black" points="243.16,-535.02 239.78,-524.98 236.16,-534.94 243.16,-535.02"/>
<text text-anchor="middle" x="253" y="-544.8" font-family="Times New Roman,serif" font-size="14.00">false</text>
</g>
<!-- 10 -->
<g id="node11" class="node">
<title>10</title>
<polygon fill="none" stroke="black" points="176.5,-523 81.5,-523 81.5,-487 176.5,-487 176.5,-523"/>
<text text-anchor="middle" x="129" y="-501.9" font-family="Times New Roman,serif" font-size="12.00">%8 = arg$0[%4]</text>
</g>
<!-- 7&#45;&gt;10 -->
<g id="edge9" class="edge">
<title>7&#45;&gt;10</title>
<path fill="none" stroke="black" d="M216.47,-573.59C200.31,-561.1 178.31,-544.11 160.42,-530.28"/>
<polygon fill="black" stroke="black" points="162.75,-527.65 152.69,-524.31 158.47,-533.19 162.75,-527.65"/>
<text text-anchor="middle" x="202" y="-544.8" font-family="Times New Roman,serif" font-size="14.00">true</text>
</g>
<!-- 9 -->
<g id="node10" class="node">
<title>9</title>
<polygon fill="none" stroke="black" points="306,-396 174,-396 174,-360 306,-360 306,-396"/>
<text text-anchor="middle" x="240" y="-374.9" font-family="Times New Roman,serif" font-size="12.00">goto JcInstRef(index=18)</text>
</g>
<!-- 8&#45;&gt;9 -->
<g id="edge11" class="edge">
<title>8&#45;&gt;9</title>
<path fill="none" stroke="black" d="M240,-486.62C240,-466.19 240,-431.99 240,-407.62"/>
<polygon fill="black" stroke="black" points="243.5,-407.75 240,-397.75 236.5,-407.75 243.5,-407.75"/>
</g>
<!-- 18 -->
<g id="node19" class="node">
<title>18</title>
<polygon fill="none" stroke="black" points="339,-182 213,-182 213,-146 339,-146 339,-182"/>
<text text-anchor="middle" x="276" y="-160.9" font-family="Times New Roman,serif" font-size="12.00">goto JcInstRef(index=2)</text>
</g>
<!-- 9&#45;&gt;18 -->
<g id="edge12" class="edge">
<title>9&#45;&gt;18</title>
<path fill="none" stroke="black" d="M247.27,-359.8C249.4,-354.2 251.54,-347.91 253,-342 265.71,-290.6 271.7,-228.97 274.28,-193.66"/>
<polygon fill="black" stroke="black" points="277.76,-194.05 274.95,-183.84 270.78,-193.57 277.76,-194.05"/>
</g>
<!-- 11 -->
<g id="node12" class="node">
<title>11</title>
<polygon fill="none" stroke="black" points="176,-450 82,-450 82,-414 176,-414 176,-450"/>
<text text-anchor="middle" x="129" y="-428.9" font-family="Times New Roman,serif" font-size="12.00">if (%8 &lt;= arg$1)</text>
</g>
<!-- 10&#45;&gt;11 -->
<g id="edge13" class="edge">
<title>10&#45;&gt;11</title>
<path fill="none" stroke="black" d="M129,-486.81C129,-479.23 129,-470.1 129,-461.54"/>
<polygon fill="black" stroke="black" points="132.5,-461.54 129,-451.54 125.5,-461.54 132.5,-461.54"/>
</g>
<!-- 12 -->
<g id="node13" class="node">
<title>12</title>
<polygon fill="none" stroke="black" points="122,-342 34,-342 34,-306 122,-306 122,-342"/>
<text text-anchor="middle" x="78" y="-320.9" font-family="Times New Roman,serif" font-size="12.00">arg$3 = %4 &#45; 1</text>
</g>
<!-- 11&#45;&gt;12 -->
<g id="edge15" class="edge">
<title>11&#45;&gt;12</title>
<path fill="none" stroke="black" d="M110.24,-413.77C105.35,-408.48 100.48,-402.35 97,-396 89.79,-382.84 85.2,-366.8 82.34,-353.29"/>
<polygon fill="black" stroke="black" points="85.82,-352.87 80.53,-343.7 78.94,-354.17 85.82,-352.87"/>
<text text-anchor="middle" x="110" y="-374.3" font-family="Times New Roman,serif" font-size="14.00">false</text>
</g>
<!-- 14 -->
<g id="node15" class="node">
<title>14</title>
<polygon fill="none" stroke="black" points="244.5,-342 143.5,-342 143.5,-306 244.5,-306 244.5,-342"/>
<text text-anchor="middle" x="194" y="-320.9" font-family="Times New Roman,serif" font-size="12.00">%10 = arg$0[%4]</text>
</g>
<!-- 11&#45;&gt;14 -->
<g id="edge14" class="edge">
<title>11&#45;&gt;14</title>
<path fill="none" stroke="black" d="M128.84,-413.57C129.5,-398.28 132.43,-376.06 143,-360 145.45,-356.27 148.45,-352.83 151.76,-349.68"/>
<polygon fill="black" stroke="black" points="153.84,-352.51 159.3,-343.43 149.37,-347.12 153.84,-352.51"/>
<text text-anchor="middle" x="154" y="-374.3" font-family="Times New Roman,serif" font-size="14.00">true</text>
</g>
<!-- 13 -->
<g id="node14" class="node">
<title>13</title>
<polygon fill="none" stroke="black" points="132,-269 0,-269 0,-233 132,-233 132,-269"/>
<text text-anchor="middle" x="66" y="-247.9" font-family="Times New Roman,serif" font-size="12.00">goto JcInstRef(index=18)</text>
</g>
<!-- 12&#45;&gt;13 -->
<g id="edge16" class="edge">
<title>12&#45;&gt;13</title>
<path fill="none" stroke="black" d="M75.1,-305.81C73.8,-298.14 72.24,-288.89 70.77,-280.24"/>
<polygon fill="black" stroke="black" points="74.25,-279.8 69.13,-270.52 67.35,-280.96 74.25,-279.8"/>
</g>
<!-- 13&#45;&gt;18 -->
<g id="edge17" class="edge">
<title>13&#45;&gt;18</title>
<path fill="none" stroke="black" d="M101.46,-232.68C122.59,-222.63 150.08,-210.01 175,-200 186.79,-195.27 199.49,-190.56 211.78,-186.21"/>
<polygon fill="black" stroke="black" points="212.73,-189.59 221.01,-182.98 210.42,-182.98 212.73,-189.59"/>
</g>
<!-- 15 -->
<g id="node16" class="node">
<title>15</title>
<polygon fill="none" stroke="black" points="247.5,-269 150.5,-269 150.5,-233 247.5,-233 247.5,-269"/>
<text text-anchor="middle" x="199" y="-247.9" font-family="Times New Roman,serif" font-size="12.00">if (%10 != arg$1)</text>
</g>
<!-- 14&#45;&gt;15 -->
<g id="edge18" class="edge">
<title>14&#45;&gt;15</title>
<path fill="none" stroke="black" d="M195.21,-305.81C195.75,-298.14 196.4,-288.89 197.01,-280.24"/>
<polygon fill="black" stroke="black" points="200.48,-280.76 197.69,-270.54 193.5,-280.27 200.48,-280.76"/>
</g>
<!-- 16 -->
<g id="node17" class="node">
<title>16</title>
<polygon fill="none" stroke="black" points="194.5,-182 133.5,-182 133.5,-146 194.5,-146 194.5,-182"/>
<text text-anchor="middle" x="164" y="-160.9" font-family="Times New Roman,serif" font-size="12.00">%1 = %4</text>
</g>
<!-- 15&#45;&gt;16 -->
<g id="edge20" class="edge">
<title>15&#45;&gt;16</title>
<path fill="none" stroke="black" d="M191.44,-232.59C189.03,-226.99 186.38,-220.74 184,-215 181.01,-207.77 177.83,-199.93 174.92,-192.64"/>
<polygon fill="black" stroke="black" points="178.26,-191.57 171.31,-183.57 171.75,-194.16 178.26,-191.57"/>
<text text-anchor="middle" x="197" y="-203.8" font-family="Times New Roman,serif" font-size="14.00">false</text>
</g>
<!-- 15&#45;&gt;18 -->
<g id="edge19" class="edge">
<title>15&#45;&gt;18</title>
<path fill="none" stroke="black" d="M212.21,-232.94C220.03,-223.08 230.28,-210.58 240,-200 242.88,-196.86 245.98,-193.65 249.1,-190.5"/>
<polygon fill="black" stroke="black" points="251.55,-193 256.21,-183.48 246.63,-188.01 251.55,-193"/>
<text text-anchor="middle" x="251" y="-203.8" font-family="Times New Roman,serif" font-size="14.00">true</text>
</g>
<!-- 17 -->
<g id="node18" class="node">
<title>17</title>
<polygon fill="none" stroke="black" points="312,-109 180,-109 180,-73 312,-73 312,-109"/>
<text text-anchor="middle" x="246" y="-87.9" font-family="Times New Roman,serif" font-size="12.00">goto JcInstRef(index=19)</text>
</g>
<!-- 16&#45;&gt;17 -->
<g id="edge21" class="edge">
<title>16&#45;&gt;17</title>
<path fill="none" stroke="black" d="M183.85,-145.81C193.95,-137.07 206.4,-126.28 217.51,-116.67"/>
<polygon fill="black" stroke="black" points="219.64,-119.46 224.9,-110.27 215.05,-114.17 219.64,-119.46"/>
</g>
<!-- 17&#45;&gt;19 -->
<g id="edge22" class="edge">
<title>17&#45;&gt;19</title>
<path fill="none" stroke="black" d="M260.52,-72.81C267.67,-64.35 276.44,-53.98 284.36,-44.61"/>
<polygon fill="black" stroke="black" points="286.85,-47.08 290.63,-37.18 281.5,-42.56 286.85,-47.08"/>
</g>
<!-- 18&#45;&gt;2 -->
<g id="edge23" class="edge">
<title>18&#45;&gt;2</title>
<path fill="none" stroke="black" d="M291.74,-182.48C304.72,-198.75 321,-224.29 321,-250 321,-885 321,-885 321,-885 321,-903.88 321,-925.12 321,-941.65"/>
<polygon fill="black" stroke="black" points="317.5,-941.23 321,-951.23 324.5,-941.23 317.5,-941.23"/>
</g>
</g>
</svg>
