<?xml version="1.0" encoding="UTF-8" standalone="no"?>
<!DOCTYPE svg PUBLIC "-//W3C//DTD SVG 1.1//EN"
 "http://www.w3.org/Graphics/SVG/1.1/DTD/svg11.dtd">
<!-- Generated by graphviz version 7.0.4 (20221203.1631)
 -->
<!-- Title: jcGraph Pages: 1 -->
<svg width="779pt" height="1143pt"
     viewBox="0.00 0.00 778.50 1143.00" xmlns="http://www.w3.org/2000/svg">
<g id="graph0" class="graph" transform="scale(1 1) rotate(0) translate(4 1139)">
<title>jcGraph</title>
<!-- 0 -->
<g id="node1" class="node">
<title>0</title>
<polygon fill="none" stroke="black" points="755,-1135 650,-1135 650,-1099 755,-1099 755,-1135"/>
<text text-anchor="middle" x="702.5" y="-1113.9" font-family="Times New Roman,serif" font-size="12.00">%1 = 2147483647</text>
</g>
<!-- 1 -->
<g id="node2" class="node">
<title>1</title>
<polygon fill="none" stroke="black" points="765.5,-1062 639.5,-1062 639.5,-1026 765.5,-1026 765.5,-1062"/>
<text text-anchor="middle" x="702.5" y="-1040.9" font-family="Times New Roman,serif" font-size="12.00">goto JcInstRef(index=2)</text>
</g>
<!-- 0&#45;&gt;1 -->
<g id="edge1" class="edge">
<title>0&#45;&gt;1</title>
<path fill="none" stroke="black" d="M702.5,-1098.81C702.5,-1091.23 702.5,-1082.1 702.5,-1073.54"/>
<polygon fill="black" stroke="black" points="706,-1073.54 702.5,-1063.54 699,-1073.54 706,-1073.54"/>
</g>
<!-- 2 -->
<g id="node3" class="node">
<title>2</title>
<polygon fill="none" stroke="black" points="751.5,-989 653.5,-989 653.5,-953 751.5,-953 751.5,-989"/>
<text text-anchor="middle" x="702.5" y="-967.9" font-family="Times New Roman,serif" font-size="12.00">if (arg$2 &gt; arg$3)</text>
</g>
<!-- 1&#45;&gt;2 -->
<g id="edge2" class="edge">
<title>1&#45;&gt;2</title>
<path fill="none" stroke="black" d="M702.5,-1025.81C702.5,-1018.23 702.5,-1009.1 702.5,-1000.54"/>
<polygon fill="black" stroke="black" points="706,-1000.54 702.5,-990.54 699,-1000.54 706,-1000.54"/>
</g>
<!-- 3 -->
<g id="node4" class="node">
<title>3</title>
<polygon fill="none" stroke="black" points="673.5,-902 565.5,-902 565.5,-866 673.5,-866 673.5,-902"/>
<text text-anchor="middle" x="619.5" y="-880.9" font-family="Times New Roman,serif" font-size="12.00">%2 = arg$3 &#45; arg$2</text>
</g>
<!-- 2&#45;&gt;3 -->
<g id="edge4" class="edge">
<title>2&#45;&gt;3</title>
<path fill="none" stroke="black" d="M681.64,-952.73C675.32,-947.24 668.48,-941.03 662.5,-935 655,-927.44 647.28,-918.77 640.48,-910.8"/>
<polygon fill="black" stroke="black" points="643.34,-908.77 634.23,-903.35 637.98,-913.27 643.34,-908.77"/>
<text text-anchor="middle" x="675.5" y="-923.8" font-family="Times New Roman,serif" font-size="14.00">false</text>
</g>
<!-- 24 -->
<g id="node25" class="node">
<title>24</title>
<polygon fill="none" stroke="black" points="535.5,-36 473.5,-36 473.5,0 535.5,0 535.5,-36"/>
<text text-anchor="middle" x="504.5" y="-14.9" font-family="Times New Roman,serif" font-size="12.00">return %1</text>
</g>
<!-- 2&#45;&gt;24 -->
<g id="edge3" class="edge">
<title>2&#45;&gt;24</title>
<path fill="none" stroke="black" d="M718.59,-952.58C731.85,-936.35 748.5,-910.84 748.5,-885 748.5,-885 748.5,-885 748.5,-90 748.5,-48.52 616.86,-29.67 546.97,-22.59"/>
<polygon fill="black" stroke="black" points="547.7,-19.14 537.41,-21.66 547.02,-26.11 547.7,-19.14"/>
<text text-anchor="middle" x="759.5" y="-501.3" font-family="Times New Roman,serif" font-size="14.00">true</text>
</g>
<!-- 4 -->
<g id="node5" class="node">
<title>4</title>
<polygon fill="none" stroke="black" points="643.5,-829 567.5,-829 567.5,-793 643.5,-793 643.5,-829"/>
<text text-anchor="middle" x="605.5" y="-807.9" font-family="Times New Roman,serif" font-size="12.00">%3 = %2 / 2</text>
</g>
<!-- 3&#45;&gt;4 -->
<g id="edge5" class="edge">
<title>3&#45;&gt;4</title>
<path fill="none" stroke="black" d="M616.11,-865.81C614.6,-858.14 612.77,-848.89 611.07,-840.24"/>
<polygon fill="black" stroke="black" points="614.52,-839.65 609.15,-830.51 607.65,-841 614.52,-839.65"/>
</g>
<!-- 5 -->
<g id="node6" class="node">
<title>5</title>
<polygon fill="none" stroke="black" points="637.5,-756 537.5,-756 537.5,-720 637.5,-720 637.5,-756"/>
<text text-anchor="middle" x="587.5" y="-734.9" font-family="Times New Roman,serif" font-size="12.00">%4 = arg$2 + %3</text>
</g>
<!-- 4&#45;&gt;5 -->
<g id="edge6" class="edge">
<title>4&#45;&gt;5</title>
<path fill="none" stroke="black" d="M601.14,-792.81C599.17,-785.05 596.8,-775.68 594.59,-766.95"/>
<polygon fill="black" stroke="black" points="598.04,-766.33 592.19,-757.5 591.25,-768.05 598.04,-766.33"/>
</g>
<!-- 6 -->
<g id="node7" class="node">
<title>6</title>
<polygon fill="none" stroke="black" points="565,-683 470,-683 470,-647 565,-647 565,-683"/>
<text text-anchor="middle" x="517.5" y="-661.9" font-family="Times New Roman,serif" font-size="12.00">%6 = arg$0[%4]</text>
</g>
<!-- 5&#45;&gt;6 -->
<g id="edge7" class="edge">
<title>5&#45;&gt;6</title>
<path fill="none" stroke="black" d="M570.55,-719.81C562.04,-711.18 551.57,-700.56 542.18,-691.03"/>
<polygon fill="black" stroke="black" points="544.86,-688.77 535.35,-684.11 539.88,-693.68 544.86,-688.77"/>
</g>
<!-- 7 -->
<g id="node8" class="node">
<title>7</title>
<polygon fill="none" stroke="black" points="284.5,-610 190.5,-610 190.5,-574 284.5,-574 284.5,-610"/>
<text text-anchor="middle" x="237.5" y="-588.9" font-family="Times New Roman,serif" font-size="12.00">if (%6 &gt;= arg$1)</text>
</g>
<!-- 6&#45;&gt;7 -->
<g id="edge8" class="edge">
<title>6&#45;&gt;7</title>
<path fill="none" stroke="black" d="M469.68,-651.88C421.52,-639.66 347.15,-620.8 295.61,-607.73"/>
<polygon fill="black" stroke="black" points="296.67,-604.39 286.12,-605.33 294.95,-611.18 296.67,-604.39"/>
</g>
<!-- 8 -->
<g id="node9" class="node">
<title>8</title>
<polygon fill="none" stroke="black" points="158.5,-523 68.5,-523 68.5,-487 158.5,-487 158.5,-523"/>
<text text-anchor="middle" x="113.5" y="-501.9" font-family="Times New Roman,serif" font-size="12.00">arg$2 = %4 + 1</text>
</g>
<!-- 7&#45;&gt;8 -->
<g id="edge10" class="edge">
<title>7&#45;&gt;8</title>
<path fill="none" stroke="black" d="M212.11,-573.59C193.63,-560.93 168.41,-543.64 148.09,-529.71"/>
<polygon fill="black" stroke="black" points="150.33,-527.01 140.11,-524.24 146.38,-532.78 150.33,-527.01"/>
<text text-anchor="middle" x="196.5" y="-544.8" font-family="Times New Roman,serif" font-size="14.00">false</text>
</g>
<!-- 10 -->
<g id="node11" class="node">
<title>10</title>
<polygon fill="none" stroke="black" points="285,-523 190,-523 190,-487 285,-487 285,-523"/>
<text text-anchor="middle" x="237.5" y="-501.9" font-family="Times New Roman,serif" font-size="12.00">%8 = arg$0[%4]</text>
</g>
<!-- 7&#45;&gt;10 -->
<g id="edge9" class="edge">
<title>7&#45;&gt;10</title>
<path fill="none" stroke="black" d="M237.5,-573.8C237.5,-562.58 237.5,-547.67 237.5,-534.69"/>
<polygon fill="black" stroke="black" points="241,-534.98 237.5,-524.98 234,-534.98 241,-534.98"/>
<text text-anchor="middle" x="248.5" y="-544.8" font-family="Times New Roman,serif" font-size="14.00">true</text>
</g>
<!-- 9 -->
<g id="node10" class="node">
<title>9</title>
<polygon fill="none" stroke="black" points="149.5,-396 17.5,-396 17.5,-360 149.5,-360 149.5,-396"/>
<text text-anchor="middle" x="83.5" y="-374.9" font-family="Times New Roman,serif" font-size="12.00">goto JcInstRef(index=18)</text>
</g>
<!-- 8&#45;&gt;9 -->
<g id="edge11" class="edge">
<title>8&#45;&gt;9</title>
<path fill="none" stroke="black" d="M109.33,-486.62C104.4,-466.1 96.14,-431.67 90.29,-407.29"/>
<polygon fill="black" stroke="black" points="93.73,-406.61 87.99,-397.7 86.92,-408.25 93.73,-406.61"/>
</g>
<!-- 18 -->
<g id="node19" class="node">
<title>18</title>
<polygon fill="none" stroke="black" points="279.5,-182 147.5,-182 147.5,-146 279.5,-146 279.5,-182"/>
<text text-anchor="middle" x="213.5" y="-160.9" font-family="Times New Roman,serif" font-size="12.00">goto JcInstRef(index=23)</text>
</g>
<!-- 9&#45;&gt;18 -->
<g id="edge12" class="edge">
<title>9&#45;&gt;18</title>
<path fill="none" stroke="black" d="M76.29,-359.91C65.43,-331.25 48.63,-272.72 73.5,-233 87.8,-210.15 112.21,-194.79 136.69,-184.54"/>
<polygon fill="black" stroke="black" points="137.7,-187.9 145.74,-181.01 135.15,-181.38 137.7,-187.9"/>
</g>
<!-- 11 -->
<g id="node12" class="node">
<title>11</title>
<polygon fill="none" stroke="black" points="284.5,-450 190.5,-450 190.5,-414 284.5,-414 284.5,-450"/>
<text text-anchor="middle" x="237.5" y="-428.9" font-family="Times New Roman,serif" font-size="12.00">if (%8 &lt;= arg$1)</text>
</g>
<!-- 10&#45;&gt;11 -->
<g id="edge13" class="edge">
<title>10&#45;&gt;11</title>
<path fill="none" stroke="black" d="M237.5,-486.81C237.5,-479.23 237.5,-470.1 237.5,-461.54"/>
<polygon fill="black" stroke="black" points="241,-461.54 237.5,-451.54 234,-461.54 241,-461.54"/>
</g>
<!-- 12 -->
<g id="node13" class="node">
<title>12</title>
<polygon fill="none" stroke="black" points="290.5,-342 202.5,-342 202.5,-306 290.5,-306 290.5,-342"/>
<text text-anchor="middle" x="246.5" y="-320.9" font-family="Times New Roman,serif" font-size="12.00">arg$3 = %4 &#45; 1</text>
</g>
<!-- 11&#45;&gt;12 -->
<g id="edge15" class="edge">
<title>11&#45;&gt;12</title>
<path fill="none" stroke="black" d="M238.95,-413.97C240.32,-397.76 242.42,-373.06 244.06,-353.79"/>
<polygon fill="black" stroke="black" points="247.54,-354.11 244.9,-343.85 240.57,-353.52 247.54,-354.11"/>
<text text-anchor="middle" x="255.5" y="-374.3" font-family="Times New Roman,serif" font-size="14.00">false</text>
</g>
<!-- 14 -->
<g id="node15" class="node">
<title>14</title>
<polygon fill="none" stroke="black" points="184,-342 83,-342 83,-306 184,-306 184,-342"/>
<text text-anchor="middle" x="133.5" y="-320.9" font-family="Times New Roman,serif" font-size="12.00">%10 = arg$0[%4]</text>
</g>
<!-- 11&#45;&gt;14 -->
<g id="edge14" class="edge">
<title>11&#45;&gt;14</title>
<path fill="none" stroke="black" d="M220.79,-413.97C203.98,-396.84 177.87,-370.22 158.58,-350.56"/>
<polygon fill="black" stroke="black" points="161.08,-348.11 151.57,-343.42 156.08,-353.01 161.08,-348.11"/>
<text text-anchor="middle" x="212.5" y="-374.3" font-family="Times New Roman,serif" font-size="14.00">true</text>
</g>
<!-- 13 -->
<g id="node14" class="node">
<title>13</title>
<polygon fill="none" stroke="black" points="330.5,-269 198.5,-269 198.5,-233 330.5,-233 330.5,-269"/>
<text text-anchor="middle" x="264.5" y="-247.9" font-family="Times New Roman,serif" font-size="12.00">goto JcInstRef(index=18)</text>
</g>
<!-- 12&#45;&gt;13 -->
<g id="edge16" class="edge">
<title>12&#45;&gt;13</title>
<path fill="none" stroke="black" d="M250.86,-305.81C252.83,-298.05 255.2,-288.68 257.41,-279.95"/>
<polygon fill="black" stroke="black" points="260.75,-281.05 259.81,-270.5 253.96,-279.33 260.75,-281.05"/>
</g>
<!-- 13&#45;&gt;18 -->
<g id="edge17" class="edge">
<title>13&#45;&gt;18</title>
<path fill="none" stroke="black" d="M254.18,-232.8C247.17,-221.12 237.77,-205.45 229.76,-192.11"/>
<polygon fill="black" stroke="black" points="232.91,-190.54 224.76,-183.77 226.9,-194.14 232.91,-190.54"/>
</g>
<!-- 15 -->
<g id="node16" class="node">
<title>15</title>
<polygon fill="none" stroke="black" points="180,-269 83,-269 83,-233 180,-233 180,-269"/>
<text text-anchor="middle" x="131.5" y="-247.9" font-family="Times New Roman,serif" font-size="12.00">if (%10 != arg$1)</text>
</g>
<!-- 14&#45;&gt;15 -->
<g id="edge18" class="edge">
<title>14&#45;&gt;15</title>
<path fill="none" stroke="black" d="M133.02,-305.81C132.8,-298.14 132.54,-288.89 132.3,-280.24"/>
<polygon fill="black" stroke="black" points="135.8,-280.44 132.02,-270.54 128.81,-280.64 135.8,-280.44"/>
</g>
<!-- 16 -->
<g id="node17" class="node">
<title>16</title>
<polygon fill="none" stroke="black" points="61,-182 0,-182 0,-146 61,-146 61,-182"/>
<text text-anchor="middle" x="30.5" y="-160.9" font-family="Times New Roman,serif" font-size="12.00">%1 = %4</text>
</g>
<!-- 15&#45;&gt;16 -->
<g id="edge20" class="edge">
<title>15&#45;&gt;16</title>
<path fill="none" stroke="black" d="M111.06,-232.8C96.37,-220.44 76.35,-203.59 59.94,-189.78"/>
<polygon fill="black" stroke="black" points="62.32,-187.2 52.41,-183.44 57.81,-192.56 62.32,-187.2"/>
<text text-anchor="middle" x="100.5" y="-203.8" font-family="Times New Roman,serif" font-size="14.00">false</text>
</g>
<!-- 15&#45;&gt;18 -->
<g id="edge19" class="edge">
<title>15&#45;&gt;18</title>
<path fill="none" stroke="black" d="M148.09,-232.8C159.8,-220.67 175.67,-204.21 188.85,-190.55"/>
<polygon fill="black" stroke="black" points="191.17,-193.18 195.6,-183.56 186.14,-188.32 191.17,-193.18"/>
<text text-anchor="middle" x="188.5" y="-203.8" font-family="Times New Roman,serif" font-size="14.00">true</text>
</g>
<!-- 17 -->
<g id="node18" class="node">
<title>17</title>
<polygon fill="none" stroke="black" points="327.5,-109 195.5,-109 195.5,-73 327.5,-73 327.5,-109"/>
<text text-anchor="middle" x="261.5" y="-87.9" font-family="Times New Roman,serif" font-size="12.00">goto JcInstRef(index=24)</text>
</g>
<!-- 16&#45;&gt;17 -->
<g id="edge21" class="edge">
<title>16&#45;&gt;17</title>
<path fill="none" stroke="black" d="M61.18,-153.57C94.89,-143.21 150.1,-126.24 194.03,-112.74"/>
<polygon fill="black" stroke="black" points="194.96,-116.11 203.49,-109.83 192.9,-109.42 194.96,-116.11"/>
</g>
<!-- 17&#45;&gt;24 -->
<g id="edge22" class="edge">
<title>17&#45;&gt;24</title>
<path fill="none" stroke="black" d="M321.26,-72.54C365,-59.76 423.28,-42.73 462.26,-31.34"/>
<polygon fill="black" stroke="black" points="463.14,-34.73 471.75,-28.57 461.17,-28.01 463.14,-34.73"/>
</g>
<!-- 23 -->
<g id="node24" class="node">
<title>23</title>
<polygon fill="none" stroke="black" points="554.5,-109 428.5,-109 428.5,-73 554.5,-73 554.5,-109"/>
<text text-anchor="middle" x="491.5" y="-87.9" font-family="Times New Roman,serif" font-size="12.00">goto JcInstRef(index=2)</text>
</g>
<!-- 18&#45;&gt;23 -->
<g id="edge23" class="edge">
<title>18&#45;&gt;23</title>
<path fill="none" stroke="black" d="M279.73,-146.08C321.1,-135.52 374.44,-121.9 417.24,-110.97"/>
<polygon fill="black" stroke="black" points="417.87,-114.42 426.7,-108.55 416.14,-107.63 417.87,-114.42"/>
</g>
<!-- 19 -->
<g id="node20" class="node">
<title>19</title>
<polygon fill="none" stroke="black" points="657.5,-450 325.5,-450 325.5,-414 657.5,-414 657.5,-450"/>
<text text-anchor="middle" x="491.5" y="-428.9" font-family="Times New Roman,serif" font-size="12.00">catch (%12: org.utbot.jcdb.impl.types.JcClassTypeImpl@612d877d)</text>
</g>
<!-- 20 -->
<g id="node21" class="node">
<title>20</title>
<polygon fill="none" stroke="black" points="674,-342 309,-342 309,-306 674,-306 674,-342"/>
<text text-anchor="middle" x="491.5" y="-320.9" font-family="Times New Roman,serif" font-size="12.00">%14 = org.utbot.jcdb.impl.bytecode.JcClassOrInterfaceImpl@f0a91421.out</text>
</g>
<!-- 19&#45;&gt;20 -->
<g id="edge24" class="edge">
<title>19&#45;&gt;20</title>
<path fill="none" stroke="black" d="M491.5,-413.97C491.5,-397.76 491.5,-373.06 491.5,-353.79"/>
<polygon fill="black" stroke="black" points="495,-353.85 491.5,-343.85 488,-353.85 495,-353.85"/>
</g>
<!-- 21 -->
<g id="node22" class="node">
<title>21</title>
<polygon fill="none" stroke="black" points="556,-269 427,-269 427,-233 556,-233 556,-269"/>
<text text-anchor="middle" x="491.5" y="-247.9" font-family="Times New Roman,serif" font-size="12.00">%14.println(&quot;Exception&quot;)</text>
</g>
<!-- 20&#45;&gt;21 -->
<g id="edge25" class="edge">
<title>20&#45;&gt;21</title>
<path fill="none" stroke="black" d="M491.5,-305.81C491.5,-298.23 491.5,-289.1 491.5,-280.54"/>
<polygon fill="black" stroke="black" points="495,-280.54 491.5,-270.54 488,-280.54 495,-280.54"/>
</g>
<!-- 22 -->
<g id="node23" class="node">
<title>22</title>
<polygon fill="none" stroke="black" points="557.5,-182 425.5,-182 425.5,-146 557.5,-146 557.5,-182"/>
<text text-anchor="middle" x="491.5" y="-160.9" font-family="Times New Roman,serif" font-size="12.00">goto JcInstRef(index=23)</text>
</g>
<!-- 21&#45;&gt;22 -->
<g id="edge26" class="edge">
<title>21&#45;&gt;22</title>
<path fill="none" stroke="black" d="M491.5,-232.8C491.5,-221.58 491.5,-206.67 491.5,-193.69"/>
<polygon fill="black" stroke="black" points="495,-193.98 491.5,-183.98 488,-193.98 495,-193.98"/>
</g>
<!-- 22&#45;&gt;23 -->
<g id="edge27" class="edge">
<title>22&#45;&gt;23</title>
<path fill="none" stroke="black" d="M491.5,-145.81C491.5,-138.23 491.5,-129.1 491.5,-120.54"/>
<polygon fill="black" stroke="black" points="495,-120.54 491.5,-110.54 488,-120.54 495,-120.54"/>
</g>
<!-- 23&#45;&gt;2 -->
<g id="edge28" class="edge">
<title>23&#45;&gt;2</title>
<path fill="none" stroke="black" d="M554.81,-100.83C616.96,-111.33 702.5,-131.5 702.5,-163 702.5,-885 702.5,-885 702.5,-885 702.5,-903.88 702.5,-925.12 702.5,-941.65"/>
<polygon fill="black" stroke="black" points="699,-941.23 702.5,-951.23 706,-941.23 699,-941.23"/>
</g>
</g>
</svg>
