<?xml version="1.0" encoding="UTF-8" standalone="no"?>
<!DOCTYPE svg PUBLIC "-//W3C//DTD SVG 1.1//EN"
 "http://www.w3.org/Graphics/SVG/1.1/DTD/svg11.dtd">
<!-- Generated by graphviz version 7.0.4 (20221203.1631)
 -->
<!-- Title: jcGraph Pages: 1 -->
<svg width="933pt" height="1226pt"
     viewBox="0.00 0.00 933.00 1226.00" xmlns="http://www.w3.org/2000/svg">
<g id="graph0" class="graph" transform="scale(1 1) rotate(0) translate(4 1222)">
<title>jcGraph</title>
<!-- 0 -->
<g id="node1" class="node">
<title>0</title>
<polygon fill="none" stroke="black" points="231,-1218 59,-1218 59,-1182 231,-1182 231,-1218"/>
<text text-anchor="middle" x="145" y="-1196.9" font-family="Times New Roman,serif" font-size="12.00">%0 = new java.io.BufferedReader</text>
</g>
<!-- 1 -->
<g id="node2" class="node">
<title>1</title>
<polygon fill="none" stroke="black" points="219.5,-1145 70.5,-1145 70.5,-1109 219.5,-1109 219.5,-1145"/>
<text text-anchor="middle" x="145" y="-1123.9" font-family="Times New Roman,serif" font-size="12.00">%1 = new java.io.FileReader</text>
</g>
<!-- 0&#45;&gt;1 -->
<g id="edge1" class="edge">
<title>0&#45;&gt;1</title>
<path fill="none" stroke="black" d="M145,-1181.81C145,-1174.23 145,-1165.1 145,-1156.54"/>
<polygon fill="black" stroke="black" points="148.5,-1156.54 145,-1146.54 141.5,-1156.54 148.5,-1156.54"/>
</g>
<!-- 2 -->
<g id="node3" class="node">
<title>2</title>
<polygon fill="none" stroke="black" points="192.5,-1072 97.5,-1072 97.5,-1036 192.5,-1036 192.5,-1072"/>
<text text-anchor="middle" x="145" y="-1050.9" font-family="Times New Roman,serif" font-size="12.00">%1.&lt;init&gt;(arg$0)</text>
</g>
<!-- 1&#45;&gt;2 -->
<g id="edge2" class="edge">
<title>1&#45;&gt;2</title>
<path fill="none" stroke="black" d="M145,-1108.81C145,-1101.23 145,-1092.1 145,-1083.54"/>
<polygon fill="black" stroke="black" points="148.5,-1083.54 145,-1073.54 141.5,-1083.54 148.5,-1083.54"/>
</g>
<!-- 3 -->
<g id="node4" class="node">
<title>3</title>
<polygon fill="none" stroke="black" points="187.5,-999 102.5,-999 102.5,-963 187.5,-963 187.5,-999"/>
<text text-anchor="middle" x="145" y="-977.9" font-family="Times New Roman,serif" font-size="12.00">%0.&lt;init&gt;(%1)</text>
</g>
<!-- 2&#45;&gt;3 -->
<g id="edge3" class="edge">
<title>2&#45;&gt;3</title>
<path fill="none" stroke="black" d="M145,-1035.81C145,-1028.23 145,-1019.1 145,-1010.54"/>
<polygon fill="black" stroke="black" points="148.5,-1010.54 145,-1000.54 141.5,-1010.54 148.5,-1010.54"/>
</g>
<!-- 4 -->
<g id="node5" class="node">
<title>4</title>
<polygon fill="none" stroke="black" points="208,-926 82,-926 82,-890 208,-890 208,-926"/>
<text text-anchor="middle" x="145" y="-904.9" font-family="Times New Roman,serif" font-size="12.00">goto JcInstRef(index=5)</text>
</g>
<!-- 3&#45;&gt;4 -->
<g id="edge4" class="edge">
<title>3&#45;&gt;4</title>
<path fill="none" stroke="black" d="M145,-962.81C145,-955.23 145,-946.1 145,-937.54"/>
<polygon fill="black" stroke="black" points="148.5,-937.54 145,-927.54 141.5,-937.54 148.5,-937.54"/>
</g>
<!-- 5 -->
<g id="node6" class="node">
<title>5</title>
<polygon fill="none" stroke="black" points="200.5,-853 89.5,-853 89.5,-817 200.5,-817 200.5,-853"/>
<text text-anchor="middle" x="145" y="-831.9" font-family="Times New Roman,serif" font-size="12.00">%4 = %0.readLine()</text>
</g>
<!-- 4&#45;&gt;5 -->
<g id="edge5" class="edge">
<title>4&#45;&gt;5</title>
<path fill="none" stroke="black" d="M145,-889.81C145,-882.23 145,-873.1 145,-864.54"/>
<polygon fill="black" stroke="black" points="148.5,-864.54 145,-854.54 141.5,-864.54 148.5,-864.54"/>
</g>
<!-- 6 -->
<g id="node7" class="node">
<title>6</title>
<polygon fill="none" stroke="black" points="151.5,-780 68.5,-780 68.5,-744 151.5,-744 151.5,-780"/>
<text text-anchor="middle" x="110" y="-758.9" font-family="Times New Roman,serif" font-size="12.00">if (%4 == null)</text>
</g>
<!-- 5&#45;&gt;6 -->
<g id="edge6" class="edge">
<title>5&#45;&gt;6</title>
<path fill="none" stroke="black" d="M136.53,-816.81C132.57,-808.79 127.77,-799.05 123.34,-790.07"/>
<polygon fill="black" stroke="black" points="126.62,-788.81 119.06,-781.39 120.35,-791.9 126.62,-788.81"/>
</g>
<!-- 7 -->
<g id="node8" class="node">
<title>7</title>
<polygon fill="none" stroke="black" points="243,-693 117,-693 117,-657 243,-657 243,-693"/>
<text text-anchor="middle" x="180" y="-671.9" font-family="Times New Roman,serif" font-size="12.00">goto JcInstRef(index=5)</text>
</g>
<!-- 6&#45;&gt;7 -->
<g id="edge8" class="edge">
<title>6&#45;&gt;7</title>
<path fill="none" stroke="black" d="M118.52,-743.92C123.96,-733.83 131.56,-721.1 140,-711 142.85,-707.59 146.04,-704.23 149.34,-701.01"/>
<polygon fill="black" stroke="black" points="151.54,-703.75 156.54,-694.41 146.81,-698.59 151.54,-703.75"/>
<text text-anchor="middle" x="153" y="-714.8" font-family="Times New Roman,serif" font-size="14.00">false</text>
</g>
<!-- 8 -->
<g id="node9" class="node">
<title>8</title>
<polygon fill="none" stroke="black" points="99,-693 33,-693 33,-657 99,-657 99,-693"/>
<text text-anchor="middle" x="66" y="-671.9" font-family="Times New Roman,serif" font-size="12.00">%0.close()</text>
</g>
<!-- 6&#45;&gt;8 -->
<g id="edge7" class="edge">
<title>6&#45;&gt;8</title>
<path fill="none" stroke="black" d="M98.52,-743.85C94.97,-738.26 91.16,-731.96 88,-726 84.28,-718.99 80.64,-711.22 77.43,-703.94"/>
<polygon fill="black" stroke="black" points="80.67,-702.63 73.52,-694.81 74.24,-705.38 80.67,-702.63"/>
<text text-anchor="middle" x="99" y="-714.8" font-family="Times New Roman,serif" font-size="14.00">true</text>
</g>
<!-- 7&#45;&gt;5 -->
<g id="edge9" class="edge">
<title>7&#45;&gt;5</title>
<path fill="none" stroke="black" d="M177.1,-693.39C173.54,-714.11 167.1,-749.75 160,-780 158.04,-788.37 155.64,-797.4 153.35,-805.63"/>
<polygon fill="black" stroke="black" points="150.01,-804.55 150.64,-815.13 156.75,-806.47 150.01,-804.55"/>
</g>
<!-- 9 -->
<g id="node10" class="node">
<title>9</title>
<polygon fill="none" stroke="black" points="132,-620 0,-620 0,-584 132,-584 132,-620"/>
<text text-anchor="middle" x="66" y="-598.9" font-family="Times New Roman,serif" font-size="12.00">goto JcInstRef(index=17)</text>
</g>
<!-- 8&#45;&gt;9 -->
<g id="edge10" class="edge">
<title>8&#45;&gt;9</title>
<path fill="none" stroke="black" d="M66,-656.81C66,-649.23 66,-640.1 66,-631.54"/>
<polygon fill="black" stroke="black" points="69.5,-631.54 66,-621.54 62.5,-631.54 69.5,-631.54"/>
</g>
<!-- 17 -->
<g id="node18" class="node">
<title>17</title>
<polygon fill="none" stroke="black" points="195,-547 63,-547 63,-511 195,-511 195,-547"/>
<text text-anchor="middle" x="129" y="-525.9" font-family="Times New Roman,serif" font-size="12.00">goto JcInstRef(index=20)</text>
</g>
<!-- 9&#45;&gt;17 -->
<g id="edge11" class="edge">
<title>9&#45;&gt;17</title>
<path fill="none" stroke="black" d="M81.25,-583.81C88.76,-575.35 97.96,-564.98 106.27,-555.61"/>
<polygon fill="black" stroke="black" points="108.87,-557.96 112.89,-548.16 103.63,-553.32 108.87,-557.96"/>
</g>
<!-- 10 -->
<g id="node11" class="node">
<title>10</title>
<polygon fill="none" stroke="black" points="575,-1218 249,-1218 249,-1182 575,-1182 575,-1218"/>
<text text-anchor="middle" x="412" y="-1196.9" font-family="Times New Roman,serif" font-size="12.00">catch (%9: org.utbot.jcdb.impl.types.JcClassTypeImpl@612d877d)</text>
</g>
<!-- 11 -->
<g id="node12" class="node">
<title>11</title>
<polygon fill="none" stroke="black" points="543,-1145 477,-1145 477,-1109 543,-1109 543,-1145"/>
<text text-anchor="middle" x="510" y="-1123.9" font-family="Times New Roman,serif" font-size="12.00">%0.close()</text>
</g>
<!-- 10&#45;&gt;11 -->
<g id="edge12" class="edge">
<title>10&#45;&gt;11</title>
<path fill="none" stroke="black" d="M435.97,-1181.63C448.31,-1172.69 463.55,-1161.66 476.98,-1151.92"/>
<polygon fill="black" stroke="black" points="478.66,-1155.02 484.71,-1146.32 474.56,-1149.36 478.66,-1155.02"/>
</g>
<!-- 12 -->
<g id="node13" class="node">
<title>12</title>
<polygon fill="none" stroke="black" points="637,-1072 505,-1072 505,-1036 637,-1036 637,-1072"/>
<text text-anchor="middle" x="571" y="-1050.9" font-family="Times New Roman,serif" font-size="12.00">goto JcInstRef(index=16)</text>
</g>
<!-- 11&#45;&gt;12 -->
<g id="edge13" class="edge">
<title>11&#45;&gt;12</title>
<path fill="none" stroke="black" d="M524.77,-1108.81C532.03,-1100.35 540.94,-1089.98 548.99,-1080.61"/>
<polygon fill="black" stroke="black" points="551.52,-1083.04 555.38,-1073.18 546.21,-1078.48 551.52,-1083.04"/>
</g>
<!-- 16 -->
<g id="node17" class="node">
<title>16</title>
<polygon fill="none" stroke="black" points="689,-999 627,-999 627,-963 689,-963 689,-999"/>
<text text-anchor="middle" x="658" y="-977.9" font-family="Times New Roman,serif" font-size="12.00">throw %9</text>
</g>
<!-- 12&#45;&gt;16 -->
<g id="edge14" class="edge">
<title>12&#45;&gt;16</title>
<path fill="none" stroke="black" d="M592.06,-1035.81C602.88,-1026.98 616.25,-1016.07 628.12,-1006.39"/>
<polygon fill="black" stroke="black" points="630.12,-1009.27 635.66,-1000.23 625.7,-1003.84 630.12,-1009.27"/>
</g>
<!-- 13 -->
<g id="node14" class="node">
<title>13</title>
<polygon fill="none" stroke="black" points="925,-1218 593,-1218 593,-1182 925,-1182 925,-1218"/>
<text text-anchor="middle" x="759" y="-1196.9" font-family="Times New Roman,serif" font-size="12.00">catch (%12: org.utbot.jcdb.impl.types.JcClassTypeImpl@612d877d)</text>
</g>
<!-- 14 -->
<g id="node15" class="node">
<title>14</title>
<polygon fill="none" stroke="black" points="823.5,-1145 688.5,-1145 688.5,-1109 823.5,-1109 823.5,-1145"/>
<text text-anchor="middle" x="756" y="-1123.9" font-family="Times New Roman,serif" font-size="12.00">%9.addSuppressed(%12)</text>
</g>
<!-- 13&#45;&gt;14 -->
<g id="edge15" class="edge">
<title>13&#45;&gt;14</title>
<path fill="none" stroke="black" d="M758.27,-1181.81C757.95,-1174.14 757.56,-1164.89 757.19,-1156.24"/>
<polygon fill="black" stroke="black" points="760.7,-1156.38 756.78,-1146.54 753.71,-1156.68 760.7,-1156.38"/>
</g>
<!-- 15 -->
<g id="node16" class="node">
<title>15</title>
<polygon fill="none" stroke="black" points="812,-1072 680,-1072 680,-1036 812,-1036 812,-1072"/>
<text text-anchor="middle" x="746" y="-1050.9" font-family="Times New Roman,serif" font-size="12.00">goto JcInstRef(index=16)</text>
</g>
<!-- 14&#45;&gt;15 -->
<g id="edge16" class="edge">
<title>14&#45;&gt;15</title>
<path fill="none" stroke="black" d="M753.58,-1108.81C752.5,-1101.14 751.2,-1091.89 749.98,-1083.24"/>
<polygon fill="black" stroke="black" points="753.47,-1082.94 748.61,-1073.53 746.54,-1083.92 753.47,-1082.94"/>
</g>
<!-- 15&#45;&gt;16 -->
<g id="edge17" class="edge">
<title>15&#45;&gt;16</title>
<path fill="none" stroke="black" d="M724.7,-1035.81C713.75,-1026.98 700.23,-1016.07 688.23,-1006.39"/>
<polygon fill="black" stroke="black" points="690.57,-1003.78 680.59,-1000.23 686.17,-1009.23 690.57,-1003.78"/>
</g>
<!-- 20 -->
<g id="node21" class="node">
<title>20</title>
<polygon fill="none" stroke="black" points="290,-474 116,-474 116,-438 290,-438 290,-474"/>
<text text-anchor="middle" x="203" y="-452.9" font-family="Times New Roman,serif" font-size="12.00">%17 = new java.io.BufferedWriter</text>
</g>
<!-- 17&#45;&gt;20 -->
<g id="edge18" class="edge">
<title>17&#45;&gt;20</title>
<path fill="none" stroke="black" d="M146.91,-510.81C155.85,-502.24 166.82,-491.71 176.69,-482.24"/>
<polygon fill="black" stroke="black" points="179.11,-484.77 183.9,-475.32 174.26,-479.72 179.11,-484.77"/>
</g>
<!-- 18 -->
<g id="node19" class="node">
<title>18</title>
<polygon fill="none" stroke="black" points="481.5,-620 150.5,-620 150.5,-584 481.5,-584 481.5,-620"/>
<text text-anchor="middle" x="316" y="-598.9" font-family="Times New Roman,serif" font-size="12.00">catch (%15: org.utbot.jcdb.impl.types.JcClassTypeImpl@8828475e)</text>
</g>
<!-- 19 -->
<g id="node20" class="node">
<title>19</title>
<polygon fill="none" stroke="black" points="370,-547 238,-547 238,-511 370,-511 370,-547"/>
<text text-anchor="middle" x="304" y="-525.9" font-family="Times New Roman,serif" font-size="12.00">goto JcInstRef(index=20)</text>
</g>
<!-- 18&#45;&gt;19 -->
<g id="edge19" class="edge">
<title>18&#45;&gt;19</title>
<path fill="none" stroke="black" d="M313.1,-583.81C311.8,-576.14 310.24,-566.89 308.77,-558.24"/>
<polygon fill="black" stroke="black" points="312.25,-557.8 307.13,-548.52 305.35,-558.96 312.25,-557.8"/>
</g>
<!-- 19&#45;&gt;20 -->
<g id="edge20" class="edge">
<title>19&#45;&gt;20</title>
<path fill="none" stroke="black" d="M279.29,-510.63C266.58,-501.69 250.88,-490.66 237.03,-480.92"/>
<polygon fill="black" stroke="black" points="239.23,-478.19 229.04,-475.31 235.21,-483.92 239.23,-478.19"/>
</g>
<!-- 21 -->
<g id="node22" class="node">
<title>21</title>
<polygon fill="none" stroke="black" points="279,-401 127,-401 127,-365 279,-365 279,-401"/>
<text text-anchor="middle" x="203" y="-379.9" font-family="Times New Roman,serif" font-size="12.00">%18 = new java.io.FileWriter</text>
</g>
<!-- 20&#45;&gt;21 -->
<g id="edge21" class="edge">
<title>20&#45;&gt;21</title>
<path fill="none" stroke="black" d="M203,-437.81C203,-430.23 203,-421.1 203,-412.54"/>
<polygon fill="black" stroke="black" points="206.5,-412.54 203,-402.54 199.5,-412.54 206.5,-412.54"/>
</g>
<!-- 22 -->
<g id="node23" class="node">
<title>22</title>
<polygon fill="none" stroke="black" points="253.5,-328 152.5,-328 152.5,-292 253.5,-292 253.5,-328"/>
<text text-anchor="middle" x="203" y="-306.9" font-family="Times New Roman,serif" font-size="12.00">%18.&lt;init&gt;(arg$1)</text>
</g>
<!-- 21&#45;&gt;22 -->
<g id="edge22" class="edge">
<title>21&#45;&gt;22</title>
<path fill="none" stroke="black" d="M203,-364.81C203,-357.23 203,-348.1 203,-339.54"/>
<polygon fill="black" stroke="black" points="206.5,-339.54 203,-329.54 199.5,-339.54 206.5,-339.54"/>
</g>
<!-- 23 -->
<g id="node24" class="node">
<title>23</title>
<polygon fill="none" stroke="black" points="251.5,-255 154.5,-255 154.5,-219 251.5,-219 251.5,-255"/>
<text text-anchor="middle" x="203" y="-233.9" font-family="Times New Roman,serif" font-size="12.00">%17.&lt;init&gt;(%18)</text>
</g>
<!-- 22&#45;&gt;23 -->
<g id="edge23" class="edge">
<title>22&#45;&gt;23</title>
<path fill="none" stroke="black" d="M203,-291.81C203,-284.23 203,-275.1 203,-266.54"/>
<polygon fill="black" stroke="black" points="206.5,-266.54 203,-256.54 199.5,-266.54 206.5,-266.54"/>
</g>
<!-- 24 -->
<g id="node25" class="node">
<title>24</title>
<polygon fill="none" stroke="black" points="239,-182 167,-182 167,-146 239,-146 239,-182"/>
<text text-anchor="middle" x="203" y="-160.9" font-family="Times New Roman,serif" font-size="12.00">%17.close()</text>
</g>
<!-- 23&#45;&gt;24 -->
<g id="edge24" class="edge">
<title>23&#45;&gt;24</title>
<path fill="none" stroke="black" d="M203,-218.81C203,-211.23 203,-202.1 203,-193.54"/>
<polygon fill="black" stroke="black" points="206.5,-193.54 203,-183.54 199.5,-193.54 206.5,-193.54"/>
</g>
<!-- 25 -->
<g id="node26" class="node">
<title>25</title>
<polygon fill="none" stroke="black" points="313,-109 181,-109 181,-73 313,-73 313,-109"/>
<text text-anchor="middle" x="247" y="-87.9" font-family="Times New Roman,serif" font-size="12.00">goto JcInstRef(index=28)</text>
</g>
<!-- 24&#45;&gt;25 -->
<g id="edge25" class="edge">
<title>24&#45;&gt;25</title>
<path fill="none" stroke="black" d="M213.65,-145.81C218.68,-137.7 224.79,-127.84 230.41,-118.78"/>
<polygon fill="black" stroke="black" points="233.36,-120.66 235.65,-110.32 227.41,-116.97 233.36,-120.66"/>
</g>
<!-- 28 -->
<g id="node29" class="node">
<title>28</title>
<polygon fill="none" stroke="black" points="348,-36 294,-36 294,0 348,0 348,-36"/>
<text text-anchor="middle" x="321" y="-14.9" font-family="Times New Roman,serif" font-size="12.00">return</text>
</g>
<!-- 25&#45;&gt;28 -->
<g id="edge26" class="edge">
<title>25&#45;&gt;28</title>
<path fill="none" stroke="black" d="M264.91,-72.81C273.85,-64.24 284.82,-53.71 294.69,-44.24"/>
<polygon fill="black" stroke="black" points="297.11,-46.77 301.9,-37.32 292.26,-41.72 297.11,-46.77"/>
</g>
<!-- 26 -->
<g id="node27" class="node">
<title>26</title>
<polygon fill="none" stroke="black" points="588.5,-182 257.5,-182 257.5,-146 588.5,-146 588.5,-182"/>
<text text-anchor="middle" x="423" y="-160.9" font-family="Times New Roman,serif" font-size="12.00">catch (%21: org.utbot.jcdb.impl.types.JcClassTypeImpl@8828475e)</text>
</g>
<!-- 27 -->
<g id="node28" class="node">
<title>27</title>
<polygon fill="none" stroke="black" points="480,-109 348,-109 348,-73 480,-73 480,-109"/>
<text text-anchor="middle" x="414" y="-87.9" font-family="Times New Roman,serif" font-size="12.00">goto JcInstRef(index=28)</text>
</g>
<!-- 26&#45;&gt;27 -->
<g id="edge27" class="edge">
<title>26&#45;&gt;27</title>
<path fill="none" stroke="black" d="M420.82,-145.81C419.85,-138.14 418.68,-128.89 417.58,-120.24"/>
<polygon fill="black" stroke="black" points="421.08,-120.01 416.35,-110.53 414.13,-120.89 421.08,-120.01"/>
</g>
<!-- 27&#45;&gt;28 -->
<g id="edge28" class="edge">
<title>27&#45;&gt;28</title>
<path fill="none" stroke="black" d="M391.49,-72.81C379.81,-63.9 365.35,-52.86 352.57,-43.1"/>
<polygon fill="black" stroke="black" points="354.9,-40.48 344.83,-37.19 350.66,-46.04 354.9,-40.48"/>
</g>
</g>
</svg>
