<?xml version="1.0" encoding="UTF-8" standalone="no"?>
<!DOCTYPE svg PUBLIC "-//W3C//DTD SVG 1.1//EN"
 "http://www.w3.org/Graphics/SVG/1.1/DTD/svg11.dtd">
<!-- Generated by graphviz version 7.0.4 (20221203.1631)
 -->
<!-- Title: jcGraph Pages: 1 -->
<svg width="176pt" height="404pt"
     viewBox="0.00 0.00 176.00 404.00" xmlns="http://www.w3.org/2000/svg">
<g id="graph0" class="graph" transform="scale(1 1) rotate(0) translate(4 400)">
<title>jcGraph</title>
<!-- 0 -->
<g id="node1" class="node">
<title>0</title>
<polygon fill="none" stroke="black" points="168,-396 0,-396 0,-360 168,-360 168,-396"/>
<text text-anchor="middle" x="84" y="-374.9" font-family="Times New Roman,serif" font-size="12.00">%0 = new java.lang.StringBuilder</text>
</g>
<!-- 1 -->
<g id="node2" class="node">
<title>1</title>
<polygon fill="none" stroke="black" points="118.5,-324 49.5,-324 49.5,-288 118.5,-288 118.5,-324"/>
<text text-anchor="middle" x="84" y="-302.9" font-family="Times New Roman,serif" font-size="12.00">%0.&lt;init&gt;()</text>
</g>
<!-- 0&#45;&gt;1 -->
<g id="edge1" class="edge">
<title>0&#45;&gt;1</title>
<path fill="none" stroke="black" d="M84,-359.7C84,-352.41 84,-343.73 84,-335.54"/>
<polygon fill="black" stroke="black" points="87.5,-335.62 84,-325.62 80.5,-335.62 87.5,-335.62"/>
</g>
<!-- 2 -->
<g id="node3" class="node">
<title>2</title>
<polygon fill="none" stroke="black" points="149.5,-252 18.5,-252 18.5,-216 149.5,-216 149.5,-252"/>
<text text-anchor="middle" x="84" y="-230.9" font-family="Times New Roman,serif" font-size="12.00">%1 = %0.append(arg$0)</text>
</g>
<!-- 1&#45;&gt;2 -->
<g id="edge2" class="edge">
<title>1&#45;&gt;2</title>
<path fill="none" stroke="black" d="M84,-287.7C84,-280.41 84,-271.73 84,-263.54"/>
<polygon fill="black" stroke="black" points="87.5,-263.62 84,-253.62 80.5,-263.62 87.5,-263.62"/>
</g>
<!-- 3 -->
<g id="node4" class="node">
<title>3</title>
<polygon fill="none" stroke="black" points="149.5,-180 18.5,-180 18.5,-144 149.5,-144 149.5,-180"/>
<text text-anchor="middle" x="84" y="-158.9" font-family="Times New Roman,serif" font-size="12.00">%2 = %1.append(arg$1)</text>
</g>
<!-- 2&#45;&gt;3 -->
<g id="edge3" class="edge">
<title>2&#45;&gt;3</title>
<path fill="none" stroke="black" d="M84,-215.7C84,-208.41 84,-199.73 84,-191.54"/>
<polygon fill="black" stroke="black" points="87.5,-191.62 84,-181.62 80.5,-191.62 87.5,-191.62"/>
</g>
<!-- 4 -->
<g id="node5" class="node">
<title>4</title>
<polygon fill="none" stroke="black" points="137.5,-108 30.5,-108 30.5,-72 137.5,-72 137.5,-108"/>
<text text-anchor="middle" x="84" y="-86.9" font-family="Times New Roman,serif" font-size="12.00">%3 = %2.toString()</text>
</g>
<!-- 3&#45;&gt;4 -->
<g id="edge4" class="edge">
<title>3&#45;&gt;4</title>
<path fill="none" stroke="black" d="M84,-143.7C84,-136.41 84,-127.73 84,-119.54"/>
<polygon fill="black" stroke="black" points="87.5,-119.62 84,-109.62 80.5,-119.62 87.5,-119.62"/>
</g>
<!-- 5 -->
<g id="node6" class="node">
<title>5</title>
<polygon fill="none" stroke="black" points="115,-36 53,-36 53,0 115,0 115,-36"/>
<text text-anchor="middle" x="84" y="-14.9" font-family="Times New Roman,serif" font-size="12.00">return %3</text>
</g>
<!-- 4&#45;&gt;5 -->
<g id="edge5" class="edge">
<title>4&#45;&gt;5</title>
<path fill="none" stroke="black" d="M84,-71.7C84,-64.41 84,-55.73 84,-47.54"/>
<polygon fill="black" stroke="black" points="87.5,-47.62 84,-37.62 80.5,-47.62 87.5,-47.62"/>
</g>
</g>
</svg>
